<svg id="Layer_1" data-name="Layer 1" xmlns="http://www.w3.org/2000/svg" viewBox="0 0 119.8 41.24"><defs><style>.cls-1{fill:#ea5713;}</style></defs><path class="cls-1" d="M102.77,10.09C99,13.66,96.11,15,95.58,17.89s2.85,2.17,5-2.82Z"/><path class="cls-1" d="M114.62,6.75a30.64,30.64,0,0,0-10.44,11.07c-.85,1.57.38,2.6,4.17-.85S114.62,6.75,114.62,6.75Z"/><path class="cls-1" d="M97.48,22.64a15.32,15.32,0,0,1-10.16,6.59c-1.53.26-2.74-1.46.37-4.08S97.48,22.64,97.48,22.64Z"/><path class="cls-1" d="M93.13,18.26c-4-2.15-7.47-2.49-7.38-5s4.39-2.94,5.89,1Z"/><path class="cls-1" d="M85.92,17.69a20.6,20.6,0,0,0-7.2,9.21c-.59,1.44.24,2.76,2.84,0S85.92,17.69,85.92,17.69Z"/><path class="cls-1" d="M79.89,19.44c-3.8-2.64-5.8-5.54-8-4.55s-.45,4.84,3.75,4.69Z"/><path class="cls-1" d="M73.76,23.1c-4.25,2.87-7.62,3.5-8.14,6.58s3.4,3.37,5.77-1.61Z"/><path class="cls-1" d="M67.59,24c-3-1-5.06-.67-6-2.62s1.27-3,3.62-.19Z"/><path class="cls-1" d="M59.31,22.44c-4.82-5.21-7.52-10.46-10-9.25s0,8,5,8.64Z"/><path class="cls-1" d="M54.74,24.69c-4.81,4.19-9.06,5.95-8.93,9s5.36,2,7.14-3.52Z"/><path class="cls-1" d="M44.7,22.64A16.79,16.79,0,0,1,36,16.24c-.78-1.12,0-2.42,3.12-.59S44.7,22.64,44.7,22.64Z"/><path class="cls-1" d="M41,25.21c-5.06,1.27-9,.71-9.75,3.46S35,33,38,29.12Z"/><path class="cls-1" d="M32.68,21.73a27.81,27.81,0,0,1-13-7.28c-1.33-1.32-.72-3,3.78-.94S32.68,21.73,32.68,21.73Z"/><path class="cls-1" d="M25,22.72a13.75,13.75,0,0,0-10,2.8c-1.08.83-.83,2.57,2.57,2.05S25,22.72,25,22.72Z"/><path class="cls-1" d="M63,25.87c-2.87.75-5.09.44-5.53,2s2.1,2.48,3.81.24Z"/><path class="cls-1" d="M104.73,22.9c-2.87.74-5.09.43-5.53,2s2.1,2.47,3.81.23Z"/><path class="cls-1" d="M19,20.31c-5.91-2.39-9.41-5.38-12.09-3.86s.65,5.67,6.37,4.77Z"/></svg>