<svg id="Layer_1" data-name="Layer 1" xmlns="http://www.w3.org/2000/svg" viewBox="0 0 344.99 367.05"><defs><style>.cls-1,.cls-2{fill:none;stroke-miterlimit:10;}.cls-1{stroke:#a6af73;}.cls-2{stroke:#fcdb82;}.cls-3{fill:#fde9b5;}.cls-4{fill:#d8d8b9;}</style></defs><path class="cls-1" d="M151.86,92.74s8.54-4.22,12.55-4.36,6-.75,11.09,1.43,8.88,5,9.13,5.48.69,1.13-3.25,2.75-7.58,2.92-7.42,3"/><path class="cls-1" d="M180.51,110.25c3-2.37,7-8,14.93-5.71s9.89,6.88,9.18,9.27-3.91,10-7.26,13.93S192,138,187.64,142.56s-7.84,9.13-8.65,10.74l-.82,1.61"/><path class="cls-2" d="M32.56,190.31c-.37-3.87,7.45-20.06,8.28-28s2.86-27.06,5.44-34.77S62.07,105,72.17,99.48s38.27-15.64,45.41-14.16,23,1.17,30.67,6,7.46,5.66,14.15,7.4,8.28.28,12.11,3.82,5.82,7,4.79,11.27-9.29,34.51-11,37.13-8.85-.69-14.49.28-24.86.82-34,5.08-25.22,9.84-32.74,20.35-8.92,23.08-10.46,23.59-9.21,2.08-13.49.81-10.39-3.31-14.76-2.68-11,.12-13-1.68S32.56,190.31,32.56,190.31Z"/><path class="cls-1" d="M137.13,276.25s5.53,31.54,7.76,36.72,13.93,30,15.55,31.9,2.34,2.13,2.93-1.19-1.32-15,3.89-23.88,13.28-20.08,18.49-24.29S203,283.58,205.2,280.75s6.37-6.12,11.27-20.68,4.48-9.75,4.81-16.22-1.71-11-3.85-17.15-5.32-12.86-7.24-17.74-4.52-9.55-4.6-13.27-1.35-8.19,0-12.72,2.45-6.25,3.11-6.47,3.84,9.14,5.26,15.72,1.34,8.19,2.62,8.57,2.37.7,3.29-3.74,1.24-6.2.18-12.67-3.34-6.12-3.56-12.76-2.28-9.7-1.91-14.31a111.51,111.51,0,0,0-.4-16.74,66.94,66.94,0,0,1-.81-8.66c.07-2.23-.75-3.5.35-3.18s2.79,3.47,4.31,8.87c2.37,8.41.73,17,.57,20.2s2.34,6.16,2.45,12.58c.09,5.06,4.93,12.06,6.58,13.16s2.39.66,2.16,2.77a139,139,0,0,0,.14,20.28c.77,6.8,9.59,46.67,13.46,53.7s10.57,22.57,11.75,23.95,1.08,5,1.18,1.37-2.95-18.2-3.27-22.46-.23-12.64,0-17.49,1.81-12.8,2.57-18.73,1.63-12.86.85-14.94-2.2-3.93-.43-3.21,17.43,7.42,23.92,8.93,25.6,5.32,30.31,5.49,9.52-.68,11.47.11,3-.76,6.53.7,4.14,1.43,4.73.78-7.12-4.77-9.24-7.66-7.35-4.64-10.8-7.71-8.26-9.63-10.88-13.48-7.21-8.5-9-15.18-3.16-11.41-4.79-13.94-4.51-4.21-6.66-8.33-5.07-5-6.19-6.55-1.13-4.24-3.32-7.55-1.64-5.83-6.6-8.52-7.71-4.75-11.4-5-1.49-1.67-9.8-1.06S233.76,132,229,130.6s-10.55-1.89-13.26-6.8-5-14.61-5.36-17.39-1.52-13-4-17.2-8.23-11.67-9.29-15.47-4.41-9.93-5.2-12.62-1.73-6.88-2.9-7.63-1.71-.92-2.91,1.8-3.86,10.35-2.9,12.48,13.35,18.53,13.92,22,3.43,7.17,1.09,7.71S194,95.6,191,94.3s-5.51-3.48-8.88-5.5-5.39-3.24-9.5-6.1-7.56-5.93-9.46-9.57S154.32,57.39,151,53.74a62.71,62.71,0,0,0-10-9.11,37.94,37.94,0,0,0-15.47-6c-5.51-.81-7.63-1-11.3-.67s-9.45,3.77-12.94,4.17-3.64,1.59-9.7.62-9.48-.14-15.52,2.18-12.53,3.47-15.93,4.93-7,1-6,2.31,10.35,6.56,13.51,10,9.59,7.15,10.88,9.48,2.91,2.14,6.29,4.79,5.51,3.74,6.78,6.17a48.48,48.48,0,0,1,2.52,6.63"/><path class="cls-1" d="M182.67,162.05s3.59-9.1,6.4-11.62,6.21-5.89,7.1-8.05,2.34-2.54,3.09-5.09a17.47,17.47,0,0,1,4.06-6.18c.77-.7,2.18-1.32,2.77.81s2,6.27,1,8.83-.78,8.66-.58,11.37.94,8.52.86,11.42.26,7-2.67,10.9-3.68,6.41-7.84,9.92-7.56,6.2-8.61,7.8-2.11,3-2.11,3"/><path class="cls-2" d="M77.35,199.09c-1.5,6.55-5.13,23.19-4.72,27.62s2.71,21.94,3.44,26.77,2.46,18.88,3.78,21.21,3.55,9.39,5,9.95,8.47,3,10.81,1.86,5-5.08,11.7-6.5,16.5-2.21,19.54-2.85,16.42-2.73,20.1-5.8,21.9-13,25.62-19.53,8.44-6.18,10.76-19.18,3.28-24.82,2.34-31.94-3.9-9.92-4.47-15.16a32.43,32.43,0,0,1,.41-11.68c.82-4.56,1.14-4.74.21-7.9s-2.26-7.11-4-8.86a14.36,14.36,0,0,0-5.05-3.55,47.85,47.85,0,0,0-6.6-1.65"/><path class="cls-3" d="M36.73,191c1.08-7.4,6-12.89,7.3-24.68s2.69-25,4.43-30.85,6.46-18.08,15-23.65S90,93.34,104.38,91.52,121.17,90,129.9,90.38s14.77,2.49,18.83,5.57,8,6.58,11.23,7,10.7-.6,13,3.84.25,14.1-1.09,17.7-4.25,21.86-8.21,22.13-39.55,1.05-50.33,5.69-20.56,8.86-27.37,15.64c-8.45,8.41-10.36,21.85-11,24s-2.36,4.23-4.89,4.35-7.39-3.06-10.59-2.56a89.57,89.57,0,0,1-12.31.45c-3.87,0-6.88.06-8.45-.4S36.73,191,36.73,191Z"/><path class="cls-3" d="M83.06,272.78c-2.51-6.79-1-8.83-1.5-18s-3.45-19.71-4-24,0-16.22,2.65-26,6.38-22.42,12.56-27.18,15.53-12.1,22.92-14.65c7.22-2.49,24.7-8.08,30.31-6.42s16.93-1.58,19.12-.93,8.23,2.71,9.25,4.66,5.11,5.15,4,8.91a49.66,49.66,0,0,0-1.89,14c.15,4.44,3.42,8.43,4.14,11.94,0,0-.06,30.73-.91,33.62s-.85,6.59-3,10.24-7.61,8.9-9,10.78-1.27,3.34-8,7.35-9.32,6.67-12.56,8.57-7,5.35-10.34,5.5-13.47.6-19.15,2.06S105.57,275.32,102,278s-8,2.42-11.38,1.43S83.06,272.78,83.06,272.78Z"/><path class="cls-4" d="M169.58,85.88c-2.77-.61-9.2,1.59-14.83,3.08s-6.9-.72-9.17-2.24-3.25-1.57-7.61-2.25a86.41,86.41,0,0,0-13.77-1c-3.67.11-6.63-1.36-9.16-1.65s-6.32,1.5-13.3,3-5.81.53-6.8-2-2.3-3.22-5.43-6.62-5.59-2.69-8.15-5.15c-2-1.92-1.23-2.62-4.4-4.65A36,36,0,0,1,70.53,61c-3.34-3.48-5.9-6.28-8.78-7-4.72-1.22-.37-1.13.21-1.32,3.71-1.17,13.74-4.31,20.25-6.06,8.13-2.19,9.84.47,14.83-.49s10.9-3,13.23-4.28,9.72-2.12,14.94-.57S140,45.89,142.6,49.38s10.94,11.7,15.19,19.83,7.34,11.82,9.52,12.9,4.83,3.63,6.13,3.92c2.55.56,12.75,6.88,13.41,7.66s2,3.7.78,2.34l-1-1.1a16.63,16.63,0,0,0-5.7-4.2c-1.57-.69-4.43-2.72-6.48-3.43S169.58,85.88,169.58,85.88Z"/><path class="cls-4" d="M186.56,94.46a4.54,4.54,0,0,1-.89,3,20.14,20.14,0,0,1-4.59,2.62c-1.65.68-3.51,1.33-4.11,1.53s-.26,0,.79,1.38a21.32,21.32,0,0,1,2,3.43c.41.8.53.76.63,1.27s3.74-3.17,5.17-4,6.52-2,8.95-1.56,7.8,3,8.48,3.9,2.46,2.15,2.85,3.53a7.83,7.83,0,0,0,.29.94c.24.56.56.66,1.52.51,1.36-.2,1.82.13,1.8-.29s-.72-5.33-1.26-7.39-1.1-6.6-1.4-7.65-.1-2.34-1.23-4.2-5.28-7.65-6.05-9-3.33-5.18-3.83-6.54a24.69,24.69,0,0,0-1-3c-.74-1.62-1.52-4.45-2.35-5.78a30.23,30.23,0,0,1-1.71-4.63,15.08,15.08,0,0,1-1.31-3.65,15.7,15.7,0,0,0-.73-3,9.38,9.38,0,0,0-.66-1.15,16.34,16.34,0,0,0-1.38,3.39A24.9,24.9,0,0,0,185,66.19c-.14,1.82,1.35,3,3.2,5.07a54.84,54.84,0,0,1,5.09,7.67c1.06,1.83,3.22,5.37,5,8.5s2.11,6.51,2.65,8.19.23,2.72-.28,3a4.53,4.53,0,0,1-3.51.49,29.16,29.16,0,0,1-4.73-2.06,21.79,21.79,0,0,0-3.75-2,7.19,7.19,0,0,1-1.83-1.4"/><path class="cls-4" d="M206.28,111.5c.43,2.09-.1,3.33-.82,5.17s-1.85,4.42-2.79,6.32a20,20,0,0,1-2.46,4c-.71.84-1,1.62-1.92,2.66a15.23,15.23,0,0,0-2.27,3.12,49.84,49.84,0,0,1-2.68,4.92c-.57.65-2.13,3.64-3.2,4.84s-7,7.46-8.31,9.44-2,2.9-2.14,3.54.8,1.56,1.27,2.79.27,2.36,2.4-1.7,3.93-7.28,5.11-8.15,3.37-2.41,3.92-3.42,1.91-2.05,2.33-3.06a19.81,19.81,0,0,1,1.94-3.39,3.88,3.88,0,0,0,1.15-1.79c.38-1.11,2.11-5.13,3.75-6.52s2.74-1.72,3.56-1.52a5.43,5.43,0,0,1,2.76,2.79,39.37,39.37,0,0,1,1.17,4.75,17.4,17.4,0,0,1-.19,4.36,10.44,10.44,0,0,0-.94,3.17c-.17,1.78.39,11.13.5,12.62s.45,6.51.54,7.73a22,22,0,0,1-.35,5.95,6.65,6.65,0,0,0-.28,1c-.18,1,.16,1.76,2.48,1.94,3.11.24,3.53,1.72,3.52-1.15a42.06,42.06,0,0,0-.84-7.87,28.43,28.43,0,0,1-.65-5.31l.28-4.35c0-.87-.05-3.93-.22-5.76s-.14-6.67-.32-7.76-.8-5.46-.86-6.31.07-1.91.08-2.64a31.74,31.74,0,0,1-.26-3.73c.13-1.11.44-.81,1-2.32s.93-2.12,0-4.9-2-6.53-2.35-7.75-.69-2.47-.69-2.47l-3.32-.22Z"/><path class="cls-4" d="M207.91,171.76c-.95,2.53-2,3.21-2.46,4.41a15.29,15.29,0,0,1-2.09,3.6,29.17,29.17,0,0,1-4.39,5c-1.11,1-3.57,3.1-5,4.5s-2.59,1.84-3.77,3.32a18,18,0,0,0-2.65,3.65c-.23.78,1.58,7.44,1.48,11.24s-.63,14.2-1.28,16.38-1.32,10.84-3,13.85-1.84,5.73-3.47,7.56a63,63,0,0,0-4.57,5.22c-1.36,1.91-2.33,4.46-3.84,5.65s-4.6,4.84-6.84,5.82-5,4.06-7.32,4.84-4.19,2.8-5.78,3.79-3.29,1.75-4.41,2.39a36,36,0,0,1-3.91,2c-.76.23-3.79.82-4.48,2.14s1.47,6.19,3.59,18,1.43,12.49,2.51,14.57,4,8.23,5.4,10.86,3.43,7.94,4.32,10.31,3.87,7.87,4.16,9,1.64,2.79,1.36-1.08-.16-10.76.71-13.71,3.87-7.67,5.18-9.67,7.33-10.52,8-11.57,7-9.63,9-10.94,8.71-6.56,11.65-8.41,4.56-2.77,6-4.58,5-3.38,7.76-9a83.19,83.19,0,0,0,4.8-12.74c.73-2.18,3.87-7.67,4.14-10.48s1.18-6.4.21-9.32-2.57-8.26-3.39-10.32-3.45-9.34-4.34-12.24-3.34-6.8-3.64-9.16-4.28-9.61-4.12-12.47-1.38-6.1-.73-8.3a62.16,62.16,0,0,1,2.93-8c.58-.93,1.5-3,2.39-3.24s2.93.87,2.9,1.18a58.89,58.89,0,0,0,2.27,5.85,69.22,69.22,0,0,1,2.12,7.61c.36,1.53.84,4.13,1,5.14s.21,3.1.68,3.82.71,1,1.3-1.23a26,26,0,0,0,.89-6.78,43.19,43.19,0,0,0-.86-5.56c-.46-1.62.1-1.2-.87-3.17a40.23,40.23,0,0,1-2.15-5.79c-.26-.92-.9-2.57-.9-2.57l-5.94-2"/><path class="cls-4" d="M212.93,122.44s3.63,5.61,5.13,6.31,11.53,3.83,13.88,4.11a105.84,105.84,0,0,0,14-.62c1.3-.29,3.83-.47,4.91.27s4.7.85,5.53,1.35,8.14,3.54,9,4.55,3.07,2.89,3.37,4.07,1.9,2.92,2.19,3.59.83,3.78,1.3,4.93,3.37,3.68,4.31,4.63a43.46,43.46,0,0,1,3.66,4.11,46.43,46.43,0,0,0,4.23,5.71c1.27,1.21,4.27,6.72,5,10.55s3.17,11.53,4.22,13.44,5.89,7.2,7,8.7,6.26,8.3,7.27,9.27a68.81,68.81,0,0,0,6.49,5.17c1.53.95,4.77,2.62,5.53,3.29s2.5,2.17,3.53,3.2,1.88,1.55,1.89,1.71-1.44.18-3.39-.06a65.37,65.37,0,0,0-10.37-.26c-2,.3-11.78-1.27-14.89-2.19s-8.46-1.59-11.86-2.6-14.33-3.74-17.23-5.1-6.65-2.8-8.63-3.47-4.77-1.55-5.56-.51a4.8,4.8,0,0,0-.24,4.62c.77,1.48,1.33,1.23,1.29,3.8s-2.26,17.14-2.46,20-1.48,12.05-1.63,13.92,1,18.61,1.37,20.38a42.31,42.31,0,0,1,1,5.12c-.06.73-2-3.74-2.36-4.53s-2.66-6.78-3.35-8a21.28,21.28,0,0,1-2.37-5c-.43-1.79-4.12-13.53-4.79-15.9s-4.28-17.58-4.65-19.86-3.36-12.56-3.38-16.56.11-10.71-.13-14.52.3-5.91,0-6.65-2.37-.7-3.76-2.78a26.53,26.53,0,0,1-3.92-8.24c-.61-2.84-.57-6.49-1.19-7.92s-1.64-2.35-1.95-4.58.22-6.76,0-9.82.18-4.94-.23-7.89-1.06-8.39-1.71-9.74-2.68-4.27-3.36-4.64-3.23-1.61-3.59-.87-.44-.62-.44-.62"/></svg>