<svg id="Layer_1" data-name="Layer 1" xmlns="http://www.w3.org/2000/svg" viewBox="0 0 137.11 588.52"><defs><style>.cls-1,.cls-2{fill:none;stroke:#a6ae73;stroke-miterlimit:10;}.cls-1{stroke-width:0.75px;}.cls-2{stroke-width:0.5px;}.cls-3{fill:#b8b5d1;}.cls-4{fill:#a6ae73;}</style></defs><path class="cls-1" d="M62.15,326.13c8.5-12.32,13.8-26.46,20.3-39.85C87,276.85,91,267,103.1,267.88c8.84.64,15.29,6.72,13.88,15.77-3.31,21.27-30.48,29.53-40.08,46.81-1.08,2,3.35,4.1,8.35,4s8.17-1.47,8.86,0,0,4.31,0,4.31c-.89,6.17-16.4,17.72-19.93,17.72s-7.05-2.35-7.64,2.35S45.8,464.22,43.6,470.82,37,495,37,504.39,29.84,565.47,27.64,571a51.3,51.3,0,0,1-6,10.49l-7.35-1.8S56.9,363.13,54.85,359.55s-2-14.84-9.72-18.94S34.9,326.8,37.46,323.73s7.16-4.1,11.25-3.58S43.08,305.82,38,304.28,19.55,279.72,21.59,270s7.72-6.84,13.2,0c2.27,2.84,5.75,11.73,7,11.56l1.22-.17c1.2-4.62-.2-16.7,0-24.23s7.06-8.7,9-7.91,4.84,9.09,6.23,12.86,3,20,3,23c0,.4,0,1.24,0,2.41.18,7.53.86,28.47,1.55,30.87.79,2.78-.67,7.75-.67,7.75"/><path class="cls-1" d="M82.45,286.28a18.61,18.61,0,0,1-.18-2.64c0-1.52.12-15-.87-19.29S74.62,255,71.3,255s-7,7.76-7.21,12.25S62,280.45,61.18,283.66"/><path class="cls-1" d="M81.62,265.56c4.89-5,13.66-14.69,18.93-16.9s18-13.94,18.19-17-.51-13.26,1.53-16.66,3.06-8.5,2.89-13.09-7.14-3.23-10.37,0c-.72.71-2.31,2.39-4.34,4.64l-.57.62c-7.23,8-19.32,22.23-19.58,26.87-.34,6.12-1.19,16.66-3.57,17.51s-8.67-10-8.33-17.17-1.7-23.8,1.87-27.88,7.14-6.8,7-11.39,3.23-13.44,7.14-16.16,10.55-7.14,13.27-4.59,7.65,13.09,5.78,19-3.08,11.85-3,13.14"/><path class="cls-1" d="M69.3,255.81s-.78-7.81-4.66-10.39S49.25,236.5,45.56,230.6s-6.05-17-7.83-20.82S29.47,194.43,28,190,24.3,177.31,26.81,175a7.52,7.52,0,0,1,10.33,0c3.1,3.1,15.79,23,16.53,27.16s6.55,20.22,7.34,24.65,3,4.43,2-2.07-4.14-21.4-4.28-25.09-1.19-8-1.19-13.88S58.45,174,61,171.89s5.47-2.41,8.29,3.5,7.17,19.08,9,20.3,5.58,1.43,6.94-.58"/><path class="cls-1" d="M85.53,192s-3.62-3.92-5.72-6.3-.71-7.15-2.11-10-11.49-14.44-15.28-17.52S49.25,142,48.12,137.08s-3.78-15-1.26-20.74,8.27-15.56,9.39-16.82,2.81-2.53,3.23,1.26,2.8,19.2,4.06,21.58,6.87,12.9,7.15,16.69,2.39,13.45,3.93,16,1.12,2,.28-7-1.54-14.16-3.65-17-4.2-15.56-3.92-20.47A22.12,22.12,0,0,1,72,99.1c1.26-1.27,2.8-.29,3.5,2.8.47,2.07,4.56,9.82,4.7,10.16a8.49,8.49,0,0,1,.77,2.88c0,2.94,3.84,10.79,4.09,14.29s1.23,14,1.79,15.91,3.51,4.14,6.17-3.71,10-18.36,13.6-22.29,8-8.55,8-11.63,1.54-9.82,3.92-11.22,5.33,1,6.73,3.51,4.21,10.51,2.95,14.57-9,23.55-12.62,27.06-11.91,14.44-15.14,17.8-10.15,13.59-11.63,16a7.87,7.87,0,0,0-1.08,5.93,5.26,5.26,0,0,0,1.21,1.91"/><path class="cls-1" d="M107.71,117.93a2.21,2.21,0,0,1-.51-1.7,27.43,27.43,0,0,0-.66-7.36c-.86-4-3.86-10.59-6.15-12s-9.81-.07-12.74.57S80.87,111,80.8,114"/><path class="cls-1" d="M46,119.64c-2.33-2.21-5.05-7.17-7.15-9.83s-5.32-4.81-7.64-2.74-3.1,8.5-3.1,14.47,2.44,22.69,5.53,26.12,7.75,5.42,10.52,9,10.38,11.18,11.33,13.5,2.42,3,2.49,4.86.53,1.62.53,1.62"/><path class="cls-2" d="M63.42,170.69s1.84-5.22-1.32-9.14-6-4.42-6.45-8.34-.26-3-.19-3.18"/><path class="cls-1" d="M58.25,98.27a44.35,44.35,0,0,1,0-6.2c.26-2.62-4.55-3.81-12.76-9.28s-19-21.28-23.41-28.58-9.72-15.6-10.53-21.88,4.86-4.46,8.1-4.87S31,36.78,38.3,41.45c2.12,1.35,4.78,4.82,7.62,9.23l.54.85c6.78,10.72,14.47,26.3,18.39,31.06,5.67,6.89,4.46.6,4.86-1.62s-5.88-14.39-6-18.45,3-10.54,3.37-18S65.46,25,65.25,21.18s.81-5.68,5.88-7.7S77,15.3,80.82,19.15,84.3,34,84.71,42.66s-6.28,14.19-7.5,20.67S75.79,84,77.21,84s1.22-12.37,1.22-15.41,5.67-13.37,8.4-17.22S87.75,39.62,89.17,36s-.41-10.74.4-15.6S91.19,13.68,93,14.9s3.65,4,7.35,7.29,7.44,11.15,7.85,18.24-2,9.53-4.06,13.18S95.25,63.54,92,67.18s-8.51,19-5.17,16.62,8-13.37,10.65-14.39S106.8,52.59,108.22,50s7.09-6.49,10.94-6.69,4.46,3.24,6.08,6.08-2.84,6.69-5.67,9.73-3.85,9.93-5.48,14-13,12.33-20,15S79,93.05,75.46,101.9"/><path class="cls-1" d="M46.13,51c-.88-8.89-.55-18.86-1.78-23.17s-1-13.49.79-14.93,4.49-3.21,6.6-1.27,7.31,10.83,8,13.73a60.43,60.43,0,0,0,3.61,10.39c1.23,2.38,2.29,5.11,2.73,5.64s1.06,1.19,1.06,1.19"/><path class="cls-3" d="M56.65,356c-.88-3-2.46-10.2-5.27-13.19s-6.69-5.11-8.62-7.74-4.93-7.74-.88-9.5,6.33-1.06,8.26-2.82,2.64-3.87,1.59-6.16-4.58-10.37-7.92-12.31-6.86-1.76-10.2-7.74-9-16.89-8.8-22-.86-7.21.86-7.83,2.24-.93,4.4,1,4.35,6.1,5.56,8.34c2.06,3.81,5,8.13,6.39,8s1.64.93,3.08-2,1.24-12.25,1-15.13-.82-9.75.42-12,2.67-3.31,3.6-3.31,2-.38,3.4,3.31,3.39,8,3.6,10.58,2,15.14,1.85,17.2.72,16.48.72,19.15a67.94,67.94,0,0,0,0,7.83C60,313,61.17,318.59,60.86,320s-.21,3.5-.93,5.25,0,4.74,2,4.43,6.17-5.56,8.54-9.57,12.87-30.89,15.65-34.91,6.38-10.4,12-12.15,9.16-.72,11.12.62,4.22,3.09,3.91,7-.52,10.29-5,14.77-11,11-13.79,12.72S80.83,320.86,79,322.71a27,27,0,0,0-4.43,6.59c-.72,1.54-.82,4.84,1.44,5.56s8.65,1.75,10.71,1.44,4.43-1,4.84-.21-.83,5.77-4.22,7.83-5.67,6-9.17,7.21-4.63,3-7.82,2.05S66.08,355.8,65,356s-2.43.95-4.41.76A24.62,24.62,0,0,1,56.65,356Z"/><path class="cls-3" d="M64.21,315.14c-.24-5.61-1.52-25.2-1.16-29.59s4.45-18.35,4.45-20.67.86-5.61,3.18-5.73,6.58.73,7.56,3.78A53.1,53.1,0,0,1,80,276.35c-.12,3.54,1,7.43,0,9.93s-5.14,13.61-6.84,16.66S69,312.76,67.7,314.61a38.81,38.81,0,0,0-3.21,6.18c-.08.41.07-.94-.17-2.31A17.33,17.33,0,0,1,64.21,315.14Z"/><path class="cls-3" d="M70.25,252.64c-.74-4.16-1.3-7.68-3.89-9.16s-13.22-7.67-15.9-10.72a31,31,0,0,1-6.75-12,130.66,130.66,0,0,0-6.2-16.27c-1.85-4.07-7.3-13-7.95-15.44s-3.19-8.7-1.46-11.1,1.74-2.77,3.59-2.68,4.06,1.16,6.19,3.86,10.15,16.57,11,18.42,1.67,1.95,2.41,4.72,4,12.95,4.72,16.09,3.69,11.93,5.08,12.76,3.06.46,3.29-.83a24.4,24.4,0,0,0,0-8.89c-.83-3.53-2.94-14.63-3.21-18S58,182.2,59.51,178.71s2.48-5.51,4.27-5.88,2.53.55,3.27,2.11,6.34,15.4,7.26,17.09,2.61,4.5,3.44,4.87a9.46,9.46,0,0,0,4.13.78c1.11-.23,1.9-.38,2-.43a3.63,3.63,0,0,1-.8,1.62c-.41.3-5,6.28-5.81,7.09s-2.4,5.89-2.29,7.53.06,14.57.11,15.6.38,2.46.33,3.6a53,53,0,0,0,1,9.06,87.56,87.56,0,0,0,4.53,9.43c.76,1,2.23,1.91,3.22,1.69s2.72-.27,3.38-1.74A64.37,64.37,0,0,0,90,239.29c0-2.07-.54-5.45.93-7.69s10.14-15.11,12-16.42,8-9,11.1-11,4-3.45,5.4-2.65,2.87.46,2.07,5.17-1.32,4.93-2,6.08a13.49,13.49,0,0,0-2.11,5.35c-.1,1.79.11,10.89,0,12.26s0,2.73-2.58,4.47-10.51,9.62-12.36,10.46A23.78,23.78,0,0,0,98,248c-2.11,1.42-4.89,4.53-6.94,6.16a87.35,87.35,0,0,0-7.68,7.41c-1,1.16-.73,1.43-1.46,0s-4.34-5.53-5.8-6.31A7.53,7.53,0,0,0,72.46,254c-1.43,0-1.9.51-2,0A7.69,7.69,0,0,1,70.25,252.64Z"/><path class="cls-3" d="M82.45,246.42c-3-7.49-3.34-24-3.18-28.77s-.12-6.31,3.18-10.64,5.3-8.31,5.63-11.3,2.17-11.31,5-13.47,5-4.82,7.32-4.82,3.82-1.16,5.15.83,4.66,6.82,4.16,8.81-1.17,7.65-1.67,11.14-.4,6.87-1.67,8.14-7.33,7.6-11,11.76-8.23,12-8.51,13.85.55,4.16.28,6-1,9-1.47,9.83-.71,2-1.63,1.29A6.63,6.63,0,0,1,82.45,246.42Z"/><path class="cls-3" d="M58.5,171.39c-2.13-3.14-4.18-8.19-8.55-12.55s-10.65-8.6-12.56-10.51-5-4.65-5.87-15-.95-19.11,0-21.84,2.19-4,3.55-2.45,5.74,7.72,6.56,8.91,2.32,2.41,2.32,5,1.5,12.83,2.59,15S53,149.22,53.64,150s.48,4,1.2,5.32a21.79,21.79,0,0,0,3.66,4.33c.66.46,3.06,2.48,3.24,3.86s.75,2.29.53,4.28-.05,1.82-1.43,2.87A2.63,2.63,0,0,1,58.5,171.39Z"/><path class="cls-3" d="M84.33,188c-2.12-3.18-3.64-3-4.1-7.44s-1.06-7.71-3.49-10S62,153.94,59.64,150.9s-8.56-10.47-9.47-14.27S46.83,122.51,48.5,119s6-14.22,7-15.53,1.63-4.09,2.29-3,1.06,9.58,1.64,12.61a63.43,63.43,0,0,0,3.43,11.21c.9,1.63,4.09,9.49,4.91,10.88a13,13,0,0,1,1.48,4.75c.24,1.71,2.7,14.56,4,15.87s2.18,2.46,2.85,2,.91-4.67.66-6.14-1.71-16.86-2.7-18.5S72,130.33,71.47,129s-3.35-15.22-3.35-16.69,1.55-7.69,2.45-8.76,1.4-2.86,2.05-2.94,1.15.08,2,2,2.37,6.71,3.19,8a12.68,12.68,0,0,1,1.55,3.6c.25,1,.9,2.95,1.23,4.26S83.42,127,83.42,128s.84,10.47.91,12.36,1.22,6.71,2,7.28a3.67,3.67,0,0,0,3.93.16c1.55-.9,4.25-5.24,4.82-6.71s5.16-10.06,7.21-13.25,8.59-9.74,9.57-11.71,3.85-5.23,3.93-7a23.07,23.07,0,0,1,1.06-7.16c1-2.75,2.13-4.38,3.36-4.38s3.52,2.46,4.33,4.38,3,7.89,2.79,9.61-2.79,9.41-4.75,13.34-6.46,13-7.53,14-2.7,4.5-5.81,7.86-4.5,4.5-7.53,8.26-6.71,7.61-7.93,9.82-5.65,6.8-6.67,9.82-1.35,6.3-.54,7.29,1.32,1.13,1,1.73-1.75,4.23-2.09,4.72S84.33,188,84.33,188Z"/><path class="cls-3" d="M87.65,144c-.91-7.37-.7-14-1.41-16.61s-3.08-7.52-3.44-10.17,1.56-11.53,2.42-13.18,1.37-3.86,3.81-4.58,6.16-1.5,8.52-1,3.8,1.07,4.37,2.08,3.08,7.37,3.22,9.09.65,3.65.72,4.8-.43,1.72,0,2.58-4.51,6.51-6.09,8.73-6.3,10.89-7.23,12.46S91.82,141.42,91,143s-.63,2.37-1.35,2.6-1.27.37-1.76-.34A1.53,1.53,0,0,1,87.65,144Z"/><path class="cls-3" d="M73.71,150s-1.89-12.14-2.93-14.19c-1.69-3.34-3.21-9.25-5.11-12.26-1.31-2.07-2.86-9.19-3.35-12.13s-1.37-9.06-1.63-11-.94-2-1-4.26,1.13-6.33,0-7S45.38,80.57,41.93,76.49,31.09,61.81,27,56.45s-11.61-18-12.38-20.67-2.29-5.23.9-5.61,4.59-.64,5.87,0,8.68,9.95,11.1,11.23,6.64,3.44,8.55,5.74,8,12.5,10.85,17.35S61.2,81.85,63.24,84s4.17,3.91,5.7,3.49,2.64-1.28,2.55-3.66.34-4.51-1-7.91S65,65.22,65.54,61.57s5.53-19.91,3.91-27.39S65.9,20,68.53,17.51s3.31-3.06,5.18-2.63a5.51,5.51,0,0,1,3.82,2.8c.85,1.45,2.64,2.72,3.15,4.85s2.38,12.08,2.38,15.56,1.19,4.34.34,7.4S77.28,56.8,76.85,59.44s-2.3,6.55-2.21,8.5.08,7.91.59,10.72-.08,6,.94,6.46a1.6,1.6,0,0,0,2.3-.59c.68-.94,1-6.55,1-8.42s-.51-6.72.59-9,4.42-10,6.72-13.26A18.06,18.06,0,0,0,90,44.73c0-1.87-.51-7.66,0-9.1a26.93,26.93,0,0,0,.51-8.42,36.16,36.16,0,0,1,1-10c.51-1.1.77-2,1.79-.51s4.76,5.44,5.78,6.55,4.43,6.21,5.19,8.59,3.06,7,2.55,9.52-2.29,9.79-5.27,13.36S93.69,62,91.9,64.12s-4.5,6.46-5.1,8.59S84.33,83,84.68,83.93s.25,1.28,1.44,1.11,8.93-8.34,10-10.55,1-3.65,2-4.25,8.42-10.29,9.61-14.12,4.59-9.44,7.23-10.29,4.84-1.53,5.61-.51,1,1.28,1.79,2.38,2.68,2.86,1.42,4.28-6.92,6.21-7.85,8.23A23.58,23.58,0,0,0,114.22,67,17.25,17.25,0,0,1,112,73.67a38.89,38.89,0,0,1-6.43,5.83,75.38,75.38,0,0,1-10.74,6.21c-2.4,1.2-5.28,1.69-9.42,4.3s-5.13,1.37-7.2,3.93-1,4.43-3,3.58-3-1.78-4.79-.53-3.49,7.85-3.93,10.62a22,22,0,0,0,0,6.33c.17,1.25,1.78,11.6,2.12,12.26S70,131,70.32,131.3A9.22,9.22,0,0,1,72,134.12c.16.75,1.73,7.78,1.76,8.89s.66,5.9.66,6.65.47,2.91.47,3.48-.47.15-.79-.91A12.67,12.67,0,0,1,73.71,150Z"/><path class="cls-3" d="M67.12,83.14C62.23,78.47,53.54,57.7,50.64,55.82s-2.53-7.15-2.71-10.24.9-11.25-1.34-14.31,0-4.06-.78-6.57-.17-8,.78-9.59,1.15-3,2.89-1.83,4.58,3.46,5.36,6,3.61,5.42,4.2,8.6a45.28,45.28,0,0,0,3.53,9.77c1.18,2.48,2.59,4.95,2.95,5.89s-.47,2.59-1.42,6.13-2.83,9.91-2,12.14,2,7.5,3,8.91,3.89,7.87,3.47,8.76.06,2,0,3.12.07,1.59-.3,1.66S67.12,83.14,67.12,83.14Z"/><path class="cls-4" d="M56.65,356a11.09,11.09,0,0,1,0,6.26c-.49,2.39-5.54,37.56-6.18,40.32s-9.46,53.26-10.11,55S33,493.2,32.46,496.14s-12.21,60.16-12.3,62.09-3.68,17.91-3.77,18.82,2.3,1.56,3.58,2.12,5.7-6.8,6.34-8.27,4.5-28.1,5-30.49,4.5-32.24,4.68-34.35.28-9.55,1.2-13.32,6.06-28,6.89-31.59,7.62-33.43,7.8-34.9,5.51-28.1,5.79-30.12,5.14-24.89,5.33-27.28,2.21-11.18,2.26-11.65a15.66,15.66,0,0,1,.37-1.6s-3.67.31-5.28.28S56.65,356,56.65,356Z"/></svg>