<svg id="Layer_1" data-name="Layer 1" xmlns="http://www.w3.org/2000/svg" viewBox="0 0 415.81 426.9"><defs><style>.cls-1,.cls-2{isolation:isolate;}.cls-2{font-size:60.11px;fill:#161615;font-family:HoeflerText-Regular, Hoefler Text;}.cls-3{fill:none;stroke:#ef7c49;stroke-miterlimit:10;stroke-width:3px;}.cls-4{fill:#ef7c49;}</style></defs><g id="SIMPLE" class="cls-1"><text class="cls-2" transform="translate(78.61 194.17)">SIMPLE</text></g><g id="OIL" class="cls-1"><text class="cls-2" transform="translate(76.97 255.86)">OIL</text></g><circle id="Ellipse_13" data-name="Ellipse 13" class="cls-3" cx="196.1" cy="195.72" r="177.4"/><path id="Path_58" data-name="Path 58" class="cls-4" d="M375.6,184.81a43.35,43.35,0,0,1,10.53,23.75c.37,3.29-2.53,5.18-6.75-2.3S375.6,184.81,375.6,184.81Z"/><path id="Path_59" data-name="Path 59" class="cls-4" d="M372.35,203.21c-6.88,5.86-13.34,9-12.53,12.24s8.94.58,10.73-5.83Z"/><path id="Path_60" data-name="Path 60" class="cls-4" d="M371.59,172.77a21.8,21.8,0,0,1-4.68,12c-1,1.17-2.41.42-1.2-3.78S371.59,172.77,371.59,172.77Z"/><path id="Path_61" data-name="Path 61" class="cls-4" d="M371.36,156.78c5.91,4.33,10.17,9.79,12.2,15.64.71,2.11-1.7,3.12-6.37-1.86S371.36,156.78,371.36,156.78Z"/><path id="Path_62" data-name="Path 62" class="cls-4" d="M364.34,141.41c-4.6,8.55-10.08,13.61-7.62,17.53s10-.9,8.79-9.22Z"/><path id="Path_63" data-name="Path 63" class="cls-4" d="M349.88,104.56c6.88,8.67,13,11.2,14.92,12s2.75-1.33-2.05-5.83A30.53,30.53,0,0,0,349.88,104.56Z"/><path id="Path_64" data-name="Path 64" class="cls-4" d="M360.14,126.28c5.64,7.39,7.73,13.71,12.35,13.86s3.63-7.49-4.36-10.68Z"/><path id="Path_65" data-name="Path 65" class="cls-4" d="M269.59,356.44c-6,7.3-12,10.89-10.73,15.42s8.89,1.69,9.81-6.86Z"/><path id="Path_66" data-name="Path 66" class="cls-4" d="M371.59,225.32c.66,7.09-.5,12.16,2.36,13.93s5.22-3.8,1.43-8.86Z"/><path id="Path_67" data-name="Path 67" class="cls-4" d="M368,239.32a28.56,28.56,0,0,1-11.67,12.27c-1.87,1-3.66-.24-.19-4.65S368,239.32,368,239.32Z"/><path id="Path_68" data-name="Path 68" class="cls-4" d="M364.28,252.13c-.33,11.38-3.19,20.5,1.07,21.78s9.18-9.36,4-15.57Z"/><path id="Path_69" data-name="Path 69" class="cls-4" d="M357.66,268.27c-9.48,3.37-16.54,3.67-18.48,8s6,5.42,12.24-1.28Z"/><path id="Path_70" data-name="Path 70" class="cls-4" d="M352.21,282.48c-2.09,8.79-6.08,14.52-2.5,17.65s9.65-2.77,6.08-10.21Z"/><path id="Path_71" data-name="Path 71" class="cls-4" d="M344.85,292.52a34.28,34.28,0,0,1-18.8,6.42c-2.44.07-3.34-2.24,2.72-4.94S344.85,292.52,344.85,292.52Z"/><path id="Path_72" data-name="Path 72" class="cls-4" d="M323.23,321.49c-4.71,9-10.64,14.1-7.58,18.54s11.35-.3,9.46-9.42Z"/><path id="Path_73" data-name="Path 73" class="cls-4" d="M337.71,302.44c-2.33,9.27-6,14.79-3.26,19s8.15-1.11,5.71-10Z"/><path id="Path_74" data-name="Path 74" class="cls-4" d="M314,326.57a22.32,22.32,0,0,1-16.14,4.83c-2.11-.2-2.93-2.85,2.26-5.1S314,326.57,314,326.57Z"/><path id="Path_75" data-name="Path 75" class="cls-4" d="M330.8,309.08c-11.06.45-19.74-1.47-21.25,2.34s8.53,7.41,14.89,2.54Z"/><path id="Path_76" data-name="Path 76" class="cls-4" d="M308.43,334.72c-2.84,4.85-6,7.59-4.86,10s5.3-.1,5.08-5.05Z"/><path id="Path_77" data-name="Path 77" class="cls-4" d="M296.18,339.68c-6.57-.65-10.86-2.63-13.18-.32s2.09,5.5,7.63,2.91Z"/><path id="Path_78" data-name="Path 78" class="cls-4" d="M294.23,346a34,34,0,0,1-9.65,16.23c-1.68,1.52-3.58.32-.82-5.39S294.23,346,294.23,346Z"/><path id="Path_79" data-name="Path 79" class="cls-4" d="M281.69,348.79a25,25,0,0,1-19.44,3.66c-2.46-.55-3.23-3.92,3.09-6S281.69,348.79,281.69,348.79Z"/><path id="Path_80" data-name="Path 80" class="cls-4" d="M257.85,361c-6.25-.63-10.44.56-12.45-2.31s2.41-5.27,7.43-1.48Z"/><path id="Path_81" data-name="Path 81" class="cls-4" d="M251.53,364.9a32.69,32.69,0,0,0-14.62,12.73c-1.2,2,.48,3.82,5.77,0S251.53,364.9,251.53,364.9Z"/><path id="Path_82" data-name="Path 82" class="cls-4" d="M240.87,366.2c-7.39-3.91-11.28-8.21-15.46-6.73s-.88,7.17,7.29,6.95Z"/><path id="Path_83" data-name="Path 83" class="cls-4" d="M232.76,369.73c-8.11,4.17-14.55,5.08-15.54,9.55s6.5,4.89,11-2.33Z"/><path id="Path_84" data-name="Path 84" class="cls-4" d="M219.63,371.09c-4.9-1.54-8.12-1.33-9.82-3.87s1.64-3.65,5.73.11Z"/><path id="Path_85" data-name="Path 85" class="cls-4" d="M208.05,371.49c-6-5.5-9.47-10.95-12.18-9.85s.65,8.07,6.42,9Z"/><path id="Path_86" data-name="Path 86" class="cls-4" d="M206.61,374c-7.29,2.51-13.16,2.75-13.91,5.95s6.14,4,10-1Z"/><path id="Path_87" data-name="Path 87" class="cls-4" d="M190.42,372.63c-11.95-2.38-17.19-7.31-18.84-8.91s.2-3.57,6.94-1.07A30,30,0,0,1,190.42,372.63Z"/><path id="Path_88" data-name="Path 88" class="cls-4" d="M180.82,373.49c-9.12,2-15.84,1.1-17.83,5.55s5.51,7.08,11.68.76Z"/><path id="Path_89" data-name="Path 89" class="cls-4" d="M166.71,369.2a33.36,33.36,0,0,1-15.82-11.56c-1.35-1.87.28-3.71,6-.29A33.45,33.45,0,0,1,166.71,369.2Z"/><path id="Path_90" data-name="Path 90" class="cls-4" d="M353.22,115.1c-3.27,8.88-7.68,14.36-5.07,18.05s8.88-1.71,7-9.88Z"/><path id="Path_91" data-name="Path 91" class="cls-4" d="M156.38,370.44a29.46,29.46,0,0,0-19.48,2.4c-2.21,1.11-2,3.93,4.52,3.81S156.38,370.44,156.38,370.44Z"/><path id="Path_92" data-name="Path 92" class="cls-4" d="M147.12,366.24c-2.73-8.09-2.26-13.83-7-15.94s-6.85,4.16.05,10.05Z"/><path id="Path_93" data-name="Path 93" class="cls-4" d="M133.15,362.3c-6.74.85-11.71-.18-13.16,2.75s4.1,5.18,8.62,1.22Z"/><path id="Path_94" data-name="Path 94" class="cls-4" d="M122.9,357.74c-2.2-10.25-1.94-18.65-5.5-19.47s-5.05,9.08.23,14.28Z"/><path id="Path_95" data-name="Path 95" class="cls-4" d="M114.19,355c-8.53-1.58-14.07-5.61-17.15-1.24s2.63,10.72,9.89,6Z"/><path id="Path_96" data-name="Path 96" class="cls-4" d="M102.5,344.48a20.3,20.3,0,0,1-6.89-12c-.21-1.53,1.82-2,4.61,1.87A17.77,17.77,0,0,1,102.5,344.48Z"/><path id="Path_97" data-name="Path 97" class="cls-4" d="M96.19,344.41A29.84,29.84,0,0,0,76.41,341c-2.41.46-2.84,3.35,3.68,5.19S96.19,344.41,96.19,344.41Z"/><path id="Path_98" data-name="Path 98" class="cls-4" d="M87.47,334.86C83.66,327,79,321.64,81.21,319.12s8.57,3.13,7.42,9.43Z"/><path id="Path_99" data-name="Path 99" class="cls-4" d="M80,331.32a25.8,25.8,0,0,0-13.08-3.09c-1.58.06-1.82,1.52,2.49,2.9A26.23,26.23,0,0,0,80,331.32Z"/><path id="Path_100" data-name="Path 100" class="cls-4" d="M75.27,323.5c-5.7-9-12.06-15-9.75-18.07S76.33,308.51,75.8,316Z"/><path id="Path_101" data-name="Path 101" class="cls-4" d="M65.89,318.33A28.84,28.84,0,0,0,48,309.6c-2.34-.17-3.27,2.7,2.51,6.3S65.89,318.33,65.89,318.33Z"/><path id="Path_102" data-name="Path 102" class="cls-4" d="M59.75,307.18c-1.61-5.39-3.88-8.23-2.44-11.25s4.68-.58,3.56,5.34Z"/><path id="Path_103" data-name="Path 103" class="cls-4" d="M52.92,300.35c-5.88-4-9-8.13-12.23-7.07s-.42,6.44,5.9,6.76Z"/><path id="Path_104" data-name="Path 104" class="cls-4" d="M47.52,291.66c1.58-8,4.38-13.8,2-15.54S43,280.9,45.26,286.28Z"/><path id="Path_105" data-name="Path 105" class="cls-4" d="M42.07,285a17.87,17.87,0,0,0-9.13-5.26c-1.22-.25-1.76,1,1.16,3A17.81,17.81,0,0,0,42.07,285Z"/><path id="Path_106" data-name="Path 106" class="cls-4" d="M39.76,277.57c-1.65-10.19-5.21-17.81-1.71-19.85s9,6.51,5.36,13.18Z"/><path id="Path_107" data-name="Path 107" class="cls-4" d="M31.78,261.71c-.07-3.87-1-6.13.41-7.94s3,.32,1.28,4.13Z"/><path id="Path_108" data-name="Path 108" class="cls-4" d="M34.51,269.21a23,23,0,0,0-13.16-7.92c-1.77-.32-2.59,1.77,1.62,4.92S34.51,269.21,34.51,269.21Z"/><path id="Path_109" data-name="Path 109" class="cls-4" d="M29.19,251.79c3.27-4.4,6.76-6.84,5.7-9.1s-5.65,0-5.68,4.54Z"/><path id="Path_110" data-name="Path 110" class="cls-4" d="M25,243.05c-6.42-7.52-9.11-14.17-13.83-14s-3,8.37,5.4,11.16Z"/><path id="Path_111" data-name="Path 111" class="cls-4" d="M22.71,231.71a19.66,19.66,0,0,1,3.17-11.07c.74-1.09,2-.44,1.28,3.42A18.48,18.48,0,0,1,22.71,231.71Z"/><path id="Path_112" data-name="Path 112" class="cls-4" d="M20.25,225.81a20.49,20.49,0,0,0-6.35-10.12c-1.1-.93-2.37-.12-.56,3.45A21.87,21.87,0,0,0,20.25,225.81Z"/><path id="Path_113" data-name="Path 113" class="cls-4" d="M20.1,215.33c2-7.54,2.35-14,4.8-14.18S27.82,208.64,24,212Z"/><path id="Path_114" data-name="Path 114" class="cls-4" d="M371.57,222.28c-5.1,6.77-6.59,11.89-11.44,13.15s-4.7-4.54,3.37-8.85Z"/><path id="Path_115" data-name="Path 115" class="cls-4" d="M17.19,209.35a33.28,33.28,0,0,0-5.7-19.17c-1.38-2-3.88-1.34-2.57,5.23S17.19,209.35,17.19,209.35Z"/><path id="Path_116" data-name="Path 116" class="cls-4" d="M19.26,193c4.41-3.88,8.41-5.63,8.11-8.29s-5.26-1.41-6.68,3.44Z"/><path id="Path_117" data-name="Path 117" class="cls-4" d="M17.07,185.21c-.95-7.53.57-12.82-3.3-14.89s-7,3.67-1.87,9.29Z"/><path id="Path_118" data-name="Path 118" class="cls-4" d="M21.42,175.17c7.87-6.15,15.14-9.26,14.42-12.94s-9.81-1.15-12.11,5.9Z"/><path id="Path_119" data-name="Path 119" class="cls-4" d="M22.56,155.71a32.63,32.63,0,0,0-2.47-20.24c-1.07-2.27-3.82-2-3.65,4.83S22.56,155.71,22.56,155.71Z"/><path id="Path_120" data-name="Path 120" class="cls-4" d="M27.51,136.43c0-7.42,1.47-12.74-.81-14.6s-4.79,4-2,9.3Z"/><path id="Path_121" data-name="Path 121" class="cls-4" d="M32,131.93c7.48-3.63,13.69-4.68,14.15-8.13s-6.93-3.34-10.54,2.39Z"/><path id="Path_122" data-name="Path 122" class="cls-4" d="M37.06,116.7c1.15-8,3.63-14,1.19-15.62S32,106.2,34.52,111.45Z"/><path id="Path_123" data-name="Path 123" class="cls-4" d="M41.87,111.11c5.6-2.94,10.1-4.3,10.68-6.26s-4.7-.95-7.69,2.66Z"/><path id="Path_124" data-name="Path 124" class="cls-4" d="M48.21,97.21C51,90,50,83.52,45.34,78.74,43.65,77,39,78.55,38.81,85.1S48.21,97.21,48.21,97.21Z"/><path id="Path_125" data-name="Path 125" class="cls-4" d="M53.18,93.57A34.75,34.75,0,0,1,71.59,81.2c2.54-.64,3.93,2.11-1.9,6.9S53.18,93.57,53.18,93.57Z"/><path id="Path_126" data-name="Path 126" class="cls-4" d="M63.67,75.7c3.13-10.21,7.53-16.38,4.76-20.81s-9.06,1.59-6.91,11.2Z"/><path id="Path_127" data-name="Path 127" class="cls-4" d="M70,72.64c6.69.9,11.19,3.12,13.34.77s-2.62-5.85-8-3.31Z"/><path id="Path_128" data-name="Path 128" class="cls-4" d="M76.46,63.51c5.89-5.78,9.25-12.75,9.64-20,.11-2.59-3.35-3.54-7.4,2.92S76.46,63.51,76.46,63.51Z"/><path id="Path_129" data-name="Path 129" class="cls-4" d="M84.53,60C94,56.7,101.07,52.28,103,54.9s-6,8.89-12.22,7Z"/><path id="Path_130" data-name="Path 130" class="cls-4" d="M88.91,52.28a20.57,20.57,0,0,0,6.51-12.07c.2-1.54-1.74-2.05-4.38,1.86A18.73,18.73,0,0,0,88.91,52.28Z"/><path id="Path_131" data-name="Path 131" class="cls-4" d="M99.1,46.11a30,30,0,0,0,9.18-15.24c.47-2.05-1.55-3.05-5.11,1.81S99.1,46.11,99.1,46.11Z"/><path id="Path_132" data-name="Path 132" class="cls-4" d="M105.32,45.06c5.52-1.4,9.12-3.85,11.1-1.82S114.7,48.93,110,47Z"/><path id="Path_133" data-name="Path 133" class="cls-4" d="M114.71,37.19a26.45,26.45,0,0,1,15.77.66c1.81.66,1.75,2.69-3.53,3S114.71,37.19,114.71,37.19Z"/><path id="Path_134" data-name="Path 134" class="cls-4" d="M122.26,34.09c5-5.31,9.7-7.75,9.26-11.34s-6.24-1.83-7.75,4.76Z"/><path id="Path_135" data-name="Path 135" class="cls-4" d="M136.83,28.79c9.71,1.71,16.84.29,19,5.07S150,42,143.42,35.38Z"/><path id="Path_136" data-name="Path 136" class="cls-4" d="M136.83,26.62A36,36,0,0,0,153.24,13.4c1.33-2-.6-3.82-6.55.17A34.89,34.89,0,0,0,136.83,26.62Z"/><path id="Path_137" data-name="Path 137" class="cls-4" d="M154.08,23.11c9.19-6.26,17.59-9.22,16.89-13.31s-11.14-1.87-14,5.72Z"/><path id="Path_138" data-name="Path 138" class="cls-4" d="M162.07,22.46c7.1,6.06,10.88,12.08,14.85,10.84s.73-9-7.06-9.91Z"/><path id="Path_139" data-name="Path 139" class="cls-4" d="M176.36,18.55c8.77-3.23,15.27-3,17.1-8s-5.47-6.9-11.28.56Z"/><path id="Path_140" data-name="Path 140" class="cls-4" d="M187.9,18.71c5.71,2.35,10.19,2.6,11,5.55s-4.44,3.66-7.7-1Z"/><path id="Path_141" data-name="Path 141" class="cls-4" d="M198.93,18.35a34.62,34.62,0,0,0,20.49-7.28c2.13-1.67,1.3-4.49-5.76-2.73S198.93,18.35,198.93,18.35Z"/><path id="Path_142" data-name="Path 142" class="cls-4" d="M208.38,18.55c8.11,4.29,15.38,6.25,15,9.15s-9.3,1.48-12.16-3.84Z"/><path id="Path_143" data-name="Path 143" class="cls-4" d="M227.21,22.35c5.46,3.82,9.5,4.84,10.66,8.62s-3.37,3.82-7-2.4Z"/><path id="Path_144" data-name="Path 144" class="cls-4" d="M222.42,20.21c7-1.9,12.45-1.58,13.35-4.83s-5.44-4.76-9.4,0Z"/><path id="Path_145" data-name="Path 145" class="cls-4" d="M239.06,23.11a28.4,28.4,0,0,1,18.24-6.83c2.34,0,3.1,2.83-2.82,5.79S239.06,23.11,239.06,23.11Z"/><path id="Path_146" data-name="Path 146" class="cls-4" d="M244.94,26.31A30.3,30.3,0,0,1,257,38.91c1.08,2,0,4-4.32.26S244.94,26.31,244.94,26.31Z"/><path id="Path_147" data-name="Path 147" class="cls-4" d="M261.7,29.58c9.42,1,16.09,4.06,18.57.38s-4.76-8.68-11.66-4.53Z"/><path id="Path_148" data-name="Path 148" class="cls-4" d="M265,33.06c4.53,4.63,8.86,6.93,8.2,9.76s-6.13,1-7.17-4.39Z"/><path id="Path_149" data-name="Path 149" class="cls-4" d="M280.78,38.68a21.58,21.58,0,0,0,14.57-.3c1.58-.64,1.23-2.72-3.73-3.13A21.2,21.2,0,0,0,280.78,38.68Z"/><path id="Path_150" data-name="Path 150" class="cls-4" d="M280.94,41.28a26.59,26.59,0,0,0,5.51,12.39c1,1.14,2.1.13.54-4.25A23,23,0,0,0,280.94,41.28Z"/><path id="Path_151" data-name="Path 151" class="cls-4" d="M291.89,46.64c5.64,8.66,11.15,13.13,10.16,18.17s-8,1.33-9.1-8.42Z"/><path id="Path_152" data-name="Path 152" class="cls-4" d="M311.53,61.75c6.13,10.54,12.35,16.14,10.88,22s-9.53,1.08-10.21-10.47Z"/><path id="Path_153" data-name="Path 153" class="cls-4" d="M303.13,52.26a19.64,19.64,0,0,1,11.18,2.17c1.42.72,1.89,2.29-1.72,2A29.71,29.71,0,0,1,303.13,52.26Z"/><path id="Path_154" data-name="Path 154" class="cls-4" d="M306.16,58.15c1,3.11,2.49,4.88,1.39,6.42s-3.32-.09-2.36-3.25Z"/><path id="Path_155" data-name="Path 155" class="cls-4" d="M322.63,71.51c9.42,3.53,14.95,8,19.32,5.7s-.87-8.44-10.1-7.07Z"/><path id="Path_156" data-name="Path 156" class="cls-4" d="M334.69,83.07c4.52-.34,7.6-1.8,9,.12s-1.85,4.35-5.43,2.11Z"/><path id="Path_157" data-name="Path 157" class="cls-4" d="M335.18,87.34A28,28,0,0,1,338.56,106c-.41,2.28-3.17,2.69-5-3.45S335.18,87.34,335.18,87.34Z"/><path id="Path_158" data-name="Path 158" class="cls-4" d="M342.14,94.38c3.87,3,6.06,6.08,8,5.36s-.1-4.69-4-5Z"/></svg>