<svg id="Layer_1" data-name="Layer 1" xmlns="http://www.w3.org/2000/svg" viewBox="0 0 398.95 545.43"><defs><style>.cls-1,.cls-3{fill:none;stroke-miterlimit:10;stroke-width:0.25px;}.cls-1{stroke:#d8d8b8;}.cls-2{fill:#a6ae73;}.cls-3{stroke:#a6ae73;}</style></defs><path class="cls-1" d="M189.89,302.35c-1.71-3.14-9.22-17.9-11.32-24s-5.66-14.88-6.48-24.83-3.12-26.64-4.34-30.43-3.49-18.06-2-25,2.12-11.68,2.12-15.47S170,164,172.76,159.64a56,56,0,0,0,4.63-10.1"/><path class="cls-1" d="M184.28,131s12.82-31.32,14.65-36.45,8.25-18.86,9-23.81,2.75-18,0-21.43-4.4-6.6-5.86-6-2.2.74-2.38,3.48-1.35,17.59-2.88,21.62-5,13.92-7.29,20.15-9.43,26.92-10.72,30.4-5.37,15.17-6,17.07.81-16.3,4.58-34.18S188.65,51.39,191,47s4.92-12.25,4.92-13.54.26-2.84-1.8-1.55-10.19,11.48-11.6,17.41-2.84,17-3.36,20.37-1.28,7.86-2.19,9.92-3,2.71-1.93-5.54,2.46-38.7,1.94-45.14-3.7-17.9-5.35-20S169.27,5.38,168,7s-4.33,15.47-5,27.1-3.54,48.51-4.55,55.08-1,20.21-1.52,22.49-2,3.79-3.28-5.31-2.4-33-3.29-37.77-2.4-23.63-2.65-26.41-5-22-6.19-24.89-1-6.31-3.54-5.81-3.16.38-3.41,4.8,7.64,71.33,7.13,77.06.51,29.14,1.27,31.05,1.44,8-3.56-3.79S119,78.44,113.58,71.2,98.42,50.57,96.22,46.87,89.06,34.74,87,33.24s-2.66-3.12-5-1.85-1.85,2.42-1.15,6S92.29,58.54,93.8,61.19s23.8,37,26.45,41.37,10.86,29,11.79,31.54,5,13.09,5.31,15.44,2.31,8.7-.11,3.85-20.91-49.68-23.57-53.61-13.17-23.91-14.79-26S91.6,63.81,90.1,60,87,50.68,85.25,53.11s2.65,22.06,5.08,27c2.17,4.45,18,33.81,22.85,42.56.56,1,1,1.77,1.18,2.16,2.08,3.69,10.86,28,12.13,29.8s2.22,1.83,2.22,1.83"/><path class="cls-1" d="M112.94,122.26c-.15,1.41-4.48-.6-9.29-5.94S85.71,98,83.89,95.92s-18-20-19.76-22.11S53.44,62.59,51.52,60.88s-7.19-5.82-8.36-6.31-4.41-3-6.13-3-3.43.8-2.39,3.31S60.38,88.3,64.12,91.48s26.36,25.34,29,28.06,18.29,15.23,20.11,17.73,2.82,3.91,3.58,4.44,4.51.86,4.51.86"/><path class="cls-1" d="M152.88,198.18s-6-17.84-8.08-24.18-7.4-16.81-10.05-18.13-3.57-2.39-5.16-.89-2.07,6.93,0,10.91,9.73,23.89,11.79,28.17,9.88,20.79,11.5,23.88,1.62,6.21-2.65-.65-9-19-11.8-22.65-12.53-21.82-14.74-25.06-6.93-12.83-9.14-15.33-8.31-10.45-9.65-13-2.66-5.65-3.92-6-5.14-2.44-5.69,1,5.77,21.86,12.13,33.67,21.08,37.56,23.68,40.58a62,62,0,0,1,5.22,7.64c1.21,1.77,8,14.6,9.67,16.74s16.47,34.87,19.28,39.59,9.32,24.74,12.12,28.45,4.92,6,6,8,3.78,9.54,6.13,12.19a41.29,41.29,0,0,0,6.29,5.35"/><path class="cls-1" d="M151,244.84s-1.46-10.32-.4-11.82,5.3-1.51,7.5,2.56l2.21,4.06s8.79,23,12.55,28.08a45.43,45.43,0,0,1,5.71,10.61"/><path class="cls-1" d="M177.39,302.94s-2.61-1.57-4.19-2.62-10.69-10.75-13-14.09-12.7-18.61-15.37-23.81-21.34-35.25-23.51-40-18.51-34.08-18.51-37.66,5.37-1.23,7.72,0,11.8,11.58,11.8,11.58"/><path class="cls-1" d="M166.87,294s-4.27-1.65-5.19-2.85-15.58-18.41-16.85-20.25-9.36-11.05-9.92-13.18-11.48-11.05-14.17-13-7.28-10.81-8.92-12.62-13.94-11.66-17.45-14.81c-2.64-2.37-28.06-17.3-28.47-17.47-1.64-.71-4.22-2-4.81,0s2.46,6.56,4,8.9,17.33,19.37,19.26,21.84,15.3,14.33,18.44,16.7,25.08,23.47,27.45,26.92,23.9,21.33,26.7,24.13,25.85,23.47,33.82,30.8,10.56,21.54,12.06,25.42-.64,4.3-3,1.5c0,0-22.52-17.66-25.16-19.69s-16.41-12.26-18.44-13.67-8.1-9.93-9.72-10.74-4.16-.31-8.72-5.68a226.35,226.35,0,0,0-20-19.35c-2.83-2.13-14.79-11.25-17.12-11.75s-5-1.22-6-.51S96.63,280.21,99,283s32.22,29,34.14,31,22,21,23.31,23,27.2,23.34,30.11,24.86,16.91,10.72,17.92,11.61a61.18,61.18,0,0,1,4.29,5.05c1.14,1.39,2.15,1.13,3.41,3.28s6.57,10.35,8,12.37,6.95,9.09,8.08,10.86,18.68,30.92,20.07,32.81,6.57,8.84,7.83,10.73,2.65,2.78,1.89,3.79-.38,2-3.28,0c-1.4-1-5.77-4.41-10.2-7.95-4.72-3.77-9.51-7.67-10.88-8.84C231,433.25,220,424,218,421s-11.61-11.74-15.78-19.44-15.78-30.3-18.18-32.44-6.12-6.23-7-8.58-2.28-5.33-2.28-6.6v-1.27"/><path class="cls-1" d="M70.84,201.84c-2.14-5-24.11-24.49-26.15-26.44s-9.63-9.33-11.37-10.59-5.45-5.25-7.3-6-4.47-2.14-3.5-3,5.55-1.56,9.24,0,19.64,13.9,22.16,16.42,14.39,16.24,16.43,18.28,6.81,7.49,8.07,8.85A63.09,63.09,0,0,0,83,204c1,.83,2.41,1.35,1.73,0s-12.24-17.27-14-20.65-11.65-20.43-13.45-22.53-12.47-15.63-13.89-18.93S36,127.79,35.5,123.58s-1.13-5,.15-5.25,9.16,4.5,12.24,8.26,14.27,19.75,15.48,21.93S70,160.91,71.63,163s12.92,21,14.49,23.14,16.83,26.66,18,29.14,9.24,15.85,9.84,16.37,6,8,6.79,8.83c20.42,21,9.45,4,1.55-2.11-2.32-1.8-17.51-29.32-19.16-31.73s-14.64-27.19-15.62-28.54S79,161.74,78.09,158.88s-4.59-9.31-5.64-14-1.5-7.36-.52-8.33,4.65,3.53,6.23,6.38,12.92,24.19,14.5,27.11S99,184.72,100,185.77s3.07.36,3.07.36"/><path class="cls-1" d="M152.88,198.18c-1.36-10.25-5.31-39.82-8.89-46.38s-8.91-14.49-9.18-19.83-.14-5.88,1.64-5.74,6.56,3.41,9.43,8.06,11.08,22,12,27.22,3.14,22.84,3.69,27.21a51.45,51.45,0,0,0,3.66,12.76"/><path class="cls-1" d="M192.93,384.21s9.7,13.35,11.6,15.69,10.42,14,11.15,15.16,1.5,2,1,2.75a1.83,1.83,0,0,0-.31,1.3"/><path class="cls-1" d="M157.87,338.45c.27,2.57,3.47,7.15,3.55,8.53s-5.57-4.89-6.64-6.87-4.35-6-4.43-6.88a29.24,29.24,0,0,0-.95-3.48"/><path class="cls-1" d="M133.1,314c-2.09.6-3.92-1.46-5.3-.38s1,6.65,1.43,8.31,1.32,2.3,0,1.95-7.45-4.58-8.94-4.52-3.44-.92-3.5.57,29,31.09,31.87,35.22,14,16.14,15.19,17.36,3.64,2.55,3.58,3.71-.64,1.91-2,1.08-10.8-6.33-13.3-7.1-6.33-2-7.93-1.4-1.79,1.4-.57,3.32,11.89,12.73,13.81,14.65,20.21,16.18,22.45,18.1,19.44,14.71,21.42,16.5,17,12.21,18.87,14,18.8,13.44,20.15,14.78,16.46,11.57,17.89,12.92,4.24,2.81,6,4,2.94,1.72,3.71,3.19,4.22,6.4,5.24,8.89,6,9,7.29,11,13.79,23.53,15.26,25.92,5.47,6.71,6,8.05,1.55,3.4,1.55,3.4L315,525.61s-28.21-37.1-29.13-47.22,3.68-76,9.51-84.62S334,319.27,337,311.91s6.44-14.52,5.46-18.73-3.65-.28-4.78,2.11-21.34,43.25-23.52,46.77-16.37,35.81-17.49,38.06-.28-6.32,1.41-12.78,13.2-38.91,14.74-43.54,10.4-27,10.68-30.34-.57-10.39-.71-12.5.77-2.86-1-1.95-12.07,26.91-14.67,33.12-15.8,51.22-17.61,54.62-2.62,8.39-3.85,9.24-4.29-15.67-5.73-19.57-9.06-22.44-11.69-27.18-8.64-14.57-10.25-17.45-5.84-10-6.94-10.67-2-1-2.71-.59.51,6.1,1.69,9.06,11.44,21.09,12.2,23.54,8.47,19,9.91,23.8,4.15,13,4.65,16.35,1.61,10.67,2.12,13.8,2.12,31.42,2.2,33.71a35.18,35.18,0,0,1-.42,6.6c-.25,1.19-3.56-8-4.91-16.09S265.24,379,262.45,375.14s-15.84-19.65-18-21-4.49-3.14-5.25-2.8-.93,2.63,0,4.41,13.8,27.35,15.33,30.57,9.48,19.56,10.75,23,11.35,26.34,12.37,27.19,2.11,5.84,1.94,11.35-.5,14.06-.5,15.5.08,3,0,3.3-2.12-3.64-4.92-8.89-9.9-16.6-12.61-20.5-8.47-14.14-11.27-18.54S234,390.64,231.11,387c-.32-.41-2.22-3.47-4.63-7.49-4.64-7.72-11.2-19-12.17-21.81-2.2-6.35-4.89-7.82-7.09-22.48s-6.35-47.88-8.06-54.72-4.64-24.92-6.84-28.59-4.63-8.95-6.17-9.4-2.87-1.87-3.42,2.65.77,23.27,2,28.67,3.86,21.73,4.08,23.6c0,.49.51,2.5,1.16,5.25.17.68.34,1.41.52,2.17.12.47.23,1,.35,1.45s.19.77.28,1.16c1.86,7.66,4.2,17.08,4.44,18.33a8.09,8.09,0,0,1,.24,2.65"/><path class="cls-1" d="M218.46,365.78s.27-2.52.49-5.64c0-.34.05-.68.07-1a51.22,51.22,0,0,0,0-9.31c-.68-3.93,4.11-40.55,4.36-46s2.06-18.45,2.74-24,2.37-13.77,3.18-19.82,4.49-23.75,6.13-25.62,3.22-2.24,4.15-2.18,3.37,2.68,4,5.36-.25,42.7-.06,45.69-2.87,29.67-2.68,33.6-3.24,22.56-3.49,26-3.18,16.33-3.8,19.26-6.46,14.88-6.48,17.33l0,1.06"/><path class="cls-1" d="M218.84,361.63c-1.24-4.87-5.44-19.76-6-26.55s-3.22-24.7-3.39-31.92-1-26.45-.53-31.06,3.2-10.09,4.69-11.13,2.45-2.35,4.19-1.22,4.17,14,3.91,22.18-.61,27.92-.69,30.27.43,9.65.43,9.65"/><path class="cls-1" d="M197.31,271.84c1.15-1.49,3.25-6.68,4.16-9.87s10.73-27.19,15.84-34.26,15.12-18.85,19.05-22.19,12.6-8.36,14.08-8.25.21,3.7-1.27,6.13-7.82,9.84-11.42,15.45-13.43,20.52-14.7,22.31-9.73,14.71-11.11,16.4-5.18,6.87-6.34,9.41a32.28,32.28,0,0,1-4.46,6.39,23.65,23.65,0,0,1-3,2.4"/><path class="cls-1" d="M195.16,261.47c1.13-6.06,4.13-22.2,6.51-27.06s7.45-22.24,15.11-32.79,18.72-26.28,20-29.59,6-10.34,8-14.17,5.48-9.62,4.86-12.1-1-2.07-3.41-.62-17.69,20.79-19.45,23.79-9.83,12.21-12.31,16.14-4.51,10.47-5.38,11.22-.21-9.44.71-16.62,3.7-23.59,5-28.51,2.67-9.54,2.67-12.41.41-4.72-.72-5-2.67-.61-3.69,1.34-6.77,25.12-7.29,28.3-2.15,12.1-2.25,14.26.1,4.3-.41,5.33-1.44.82-1.34-3.49,2.77-26.15,2.57-29.43.2-10.15-.51-11.28-.6-1.74-1.88-1.25-4.57,6.18-5.66,13.29-3.44,33.39-3.53,38.21-1.15,19.15-1.15,23.54.14,8.08-1,7.67-2.6-26-2.74-37.36-1.88-42-2.74-46.9-2-9.46-2.19-10.69-.46-2.7-1.85-1.56-4,19-3.7,21.24,0,6.07,0,8.54.81,25.66,1.19,28.44,2.66,34.13,2.78,36.15S184,242,184,242"/><path class="cls-1" d="M290.49,364.39c-1-5.91-6.87-19.38-8-25.45S277,321.86,276,318.07s-4.36-13.29-4.55-17.65.41-6.67.9-7.52,5.57,4,6.41,5.94,6.66,12.35,7,15.37.24,8.36,1.57,9.57,3.73-19.55,3.1-26.55.3-10.79,1.63-11.35,4.35-.95,4.16,3.59-1.13,33.74-1.13,36.65c0,1.45-.58,20.5-.46,21.12.22,1.24.53,2.42.53,2.42"/><path class="cls-1" d="M294.8,339.8c1.09-5.57,3.71-25.66,3.71-30s0-17.78-.77-22.42,0-30,.15-34,1.86-18.4,2-25.51-2.16-31.85-2.55-36.48-1-15.93,0-17.47.86-3.25,2.55-.62,7.26,16.08,8,18.55,3.76,48.42,3.76,52.27-.38,11.4.55,15,2.79,9,3.06,9.7,4.25-17.93,5.84-24.44,8.9-24,11.43-26.7,2.65-3.19,3.71-2.39,1.73,4.12.67,8.37a213.74,213.74,0,0,1-8.64,24.57c-3.05,6.77-8.49,19.13-8.56,21.38s4.71-4,6.17-6.91,11.69-22.44,15.15-25.89,6-6.25,7.83-6,1.33,4,0,6.92-15,19.64-15.65,21.24a11.1,11.1,0,0,0-.68,3.71s20.58-25.86,23.11-29.33,10-12.77,11-13.16,2.26,1.59,1.59,5-7.3,14.07-10.62,17.93-13.15,18.46-15,21.39-13.72,18.2-15,19.16a51.76,51.76,0,0,0-4.24,4.11"/><path class="cls-1" d="M312.2,275.76c-.42,2.72-1.68,2.3-1.89,5.24s-1.7,8-2.1,6.93-1.61-24.21-1.61-27.52.91-6.71.91-5.77,2.81,17.82,3.21,19.13A3.94,3.94,0,0,0,312.2,275.76Z"/><path class="cls-1" d="M312.48,260s6-20.43,9-26.79,3.9-1.21,3.9-1.21"/><path class="cls-1" d="M311.35,236.91s5.36-24.19,5.87-29.67,5.66-29.47,6-33.07,2.91-6.54,3.66-6.63,2.85,2.37,2.95,4.55,2.53,1.71,2.59-2.84,5-24.31,6.24-26.68,3-4.75,4-4.84,1.24,7.69.67,11.58-2.75,21-2.94,23.73.09,5.13,1.51,1.24,7.6-17.75,7.79-22.69.09-7.5-.86-10.54-4.36-31-4.53-35.16-1.83-17.52-.83-21.19,1.36-4.88,2.93-4.76,3.74,3.5,3.86,5.55,3,33.45,3,35.86,0,10.75.85,10.75,1.69-3.5,3.14-10.63,6.09-27.38,7.3-29.19A28.42,28.42,0,0,1,368,87.85c.67-.53,1,.21,1,2.62s.27,15.36-.27,17.17-9.35,30.22-10.26,33.5-1.64,7.11-2.55,10.21-10.94,35.18-12.4,37.37-7.58,18.87-7.81,20.08a42.3,42.3,0,0,0-.55,4.73,3.85,3.85,0,0,0,.11.57c0,.16.23.85.23.85"/><path class="cls-1" d="M310.52,223.6c1.3-6.1,4.93-22,5.65-23.74s2-5.64,2.71-6,.82-.83.82-.83"/><path class="cls-1" d="M324.71,169.85c2-8.14,5.35-22.29,5.35-26.57s.75-6.75,0-7-3.85,4.92-5.35,9.85-5.68,23.05-5.9,25.66-1.39,2.84-.85-1.45,4-27,4-30.53.22-15.53-.21-17.14-.86-3.21-2.36-1.93-4.5,7.39-5.14,12.11S312.76,155,312.47,157s-1.15,14.57-1.58,16-1.72,4.32-2.47.77-.53-21.55-1.71-23.69-3-7.29-4.93-7.93-2.89-2.36-3.43-.11,2.36,11.57,2.68,13.72,2,14.47,1.92,15.79a22.29,22.29,0,0,1-1.63,4.49"/><path class="cls-2" d="M341.35,293.11c-.31-1.19-1.43.12-2.12,1.18a107.19,107.19,0,0,0-5.11,9.72c-.81,2.12-6.48,14.28-8.16,17.51s-10.74,22-12.3,24.59-12.42,26.27-13.72,29.22-3,5.68-3.65,6-.5-.8-.77-2.23,0-5.1.77-9.2a122.72,122.72,0,0,1,5-16.06c1.46-3.74,6.2-18.42,7.3-21.43s9.48-26,11.86-32.65,1.64-7.3,2.09-9.67-.73-9-1.18-8.48a38.84,38.84,0,0,0-2.28,5.56c-.73,2-2.95,8-4.91,12.26s-7.51,17.51-9.12,23.4-12.57,38.05-13.13,39.82-1.28,4-1.9,4.7-3,8-3.33,8.81-1,.71-1.6.6-.39-.32-.78-.92a57.85,57.85,0,0,1-3.12-11.89c-.6-4.65-3.94-12.1-4.4-13.56s-5.54-13.17-6-14.16-5.93-11.5-6.5-12.53S254,306.2,251.81,303.29s-2.41-2.24-2.8-1.67,1.46,5.92,2,7.15,4.92,9.62,6.36,11.86A75.43,75.43,0,0,1,262.77,332c.43,1.74,9.11,21.63,11.21,26.33s4.84,17,5.91,21.12,2.13,33.18,2.66,38a26.44,26.44,0,0,1-1,10.41c-.4.91-.8.5-1.71.15s-6.06-19-6.7-22.41-10.29-27.54-11.33-29.3-3.23-4.18-4.08-5.7-12.19-14-13.27-15.23a15,15,0,0,0-4.65-3.13c-1-.36-.59.17-.46,1.45s2.07,3.34,2.54,4.51,9.12,18.33,10.68,20.75,10.84,22.22,12.4,25.26,11.07,28.2,11.55,29.44a6.8,6.8,0,0,0,1.81,2.68c.39.22,1,1.66,1.8,4s.59,16.7,0,20.59,0,6.41-1.16,7.18-1.49-.26-2.69-2.13-36.71-63.25-38-65.2-10.77-17.1-11.58-18.85-8-14.3-8.94-15.72a90.76,90.76,0,0,1-5-9.59,80.91,80.91,0,0,0-3.33-7.84c-.69-1.22-2.72-12.72-2.93-13.94s-4.75-31.08-5-32.3-2.2-15.64-2.36-17.27-3.41-16-3.66-17.79-3.53-14.06-3.73-14.71-3.42-6.74-5.16-8.65-2.24-1.14-2.93-.78-.07,14.16,0,15.48,2,16.29,2.59,17.76,3.85,20.39,4.32,23.11,4.88,22.56,5.54,25.36.45,4-.42,4-5.39-4.07-6.45-4.73-5.44-9.55-6.05-11.38a14.27,14.27,0,0,0-3-4.46c-.61-.61-2.64-3.46-3.36-4.47s-4.21-3.27-5-3.74a36.7,36.7,0,0,1-4.38-4.77,2.51,2.51,0,0,0-1.86-1.24,31.49,31.49,0,0,1-4.58-2.48c-.81-.57-11.24-13.62-11.72-14.38s-13-15.49-13.67-16.4-1.1-2.52-1.57-3.28-4.77-4.58-6-5.72-9.1-7.34-9.91-8-3.86-6.05-5-8.57-2.91-3.39-3.91-4.39-4.81-3.71-5.81-4.62-10.75-8.59-11.69-9.6-27-16.54-28.58-17.05-1.41.58-1.31,1.49,4.58,7.19,6,8.76,11.35,12.92,13.3,15,10.68,10.91,12.24,12.63,13.37,11.27,15.16,12.77,14.27,14.34,16.58,16,5.46,6.65,6.13,7.47,11.65,10.68,14.24,12.69,15.41,13.89,17,15.49,11.28,9.83,13.29,11.85,9.94,9.33,10.46,9.86,7.17,6.49,8.59,8.51,3.58,7.24,4.56,9,4.48,13.36,4.85,14.93-.3,2-1.4,2.69-3.23-1.27-4.43-2.54-17.1-13.44-18.07-14.26-23.25-17.89-23.86-18.22a19.83,19.83,0,0,1-3.87-3.66c-.83-1.19-6.17-7.49-6.7-7.88s-1.35-.06-2.13-.25a40.6,40.6,0,0,1-4.34-2.55c-1-.55-4.73-5.31-5.87-6.6S117.49,288,116.74,287.2s-13.87-10-15.69-11.09-5-1-5.79-1,.1,1,.38,1.88,3,4.09,3.92,5.3,5.31,4.7,6.25,5.71,9.81,8.87,10.93,9.94,9,7.8,10.17,9,11.56,10.89,12.63,12.1S148,327.23,150,329.12s6.7,7.18,7.31,7.86,1.13.57,2.33,1.48,10.65,8.94,12.7,10.81,11.9,9.44,13.25,10.67,10,5.81,12.31,6.86,8.27,6.63,9.68,8.51,2.05,2.93,3.34,3.57,3.35,3.5,4.51,5.33,4.89,7.55,6.05,9,7.31,10.79,9.13,13.44,11.78,17.09,13.86,21.24,14.33,22.79,14.65,23.78-.78,2.28-1.71,2.57-1.31-.43-4.22-2.05-24.26-19.57-25.72-20.76-9-8.33-9.55-9.21-6.51-7.62-7.41-8.53-7-8.28-8-9.58-4.82-9.09-5.22-10.14-4.67-8.88-5.27-10.09-7.31-13.16-7.86-13.83a5.44,5.44,0,0,0-1.5-1.3,72.07,72.07,0,0,1-6.26-8,62,62,0,0,1-2.05-6.82c-.09-.79,0-.77-.24-1s-12.81-10.71-13.83-11.69-1.4-1.17-1.25-.93,2.52,5.09,2.84,5.81.41,1.7-.09,1.77a5,5,0,0,1-2.11-.87,41.78,41.78,0,0,1-4.19-4.91c-.69-.94-5.53-8.15-6-9.19s-.33-2-.63-2.59S133.11,314.51,133,314.51s.46.25-1.65,0-2.61-.52-3.29-.15,1.46,4.86,1.64,6.3a19.27,19.27,0,0,0,1.14,3.47c.12.54-1.08.66-2.51.54s-5.93-3.47-6.89-4.07a4.71,4.71,0,0,0-3.29-.3c-.3.24.9,1,1.85,2.1s3.72,3.47,4.91,4.85,6.77,7.61,8.21,8.95,11.51,11.71,14,14.8,17.68,20.15,20,21.89,1.74,3.34,1.68,4.56-2,1.55-3.67,1.35-10-6.49-12.92-7.52-7.07-1.15-7.39,0,4.18,4.5,5.58,6.13,7.68,7.24,9.27,9,12.83,9.53,15.47,12.33,20.47,14.58,22.18,16.44,32.11,24.51,34.13,26.22,25.47,18.8,26.8,19.89,9.35,6.65,10.25,8,3.26,4,4.29,6.46,6,8.57,7.49,10.8,10.89,17.94,12.87,21.78a104,104,0,0,0,9.9,15c3.22,3.83,1.61,2.35,7.92.86a2,2,0,0,0,.62-.71c.21-.46-.29-1-.58-1.69s-3.3-4.56-4.92-6.68-15.33-23.56-16.27-25.12a95.27,95.27,0,0,1-4.61-10.16c-.37-1.37.25-16.14.44-19.07s1.3-18.82,1.62-23.68,3.3-28.1,4.11-33a51.45,51.45,0,0,1,3.24-11c.44-.81,3.3-5.24,4.05-6.48s7.48-14.65,8.35-16.14,12.46-24.56,13.46-26.24,7-14.64,8.1-16.39,8.85-19.57,11-24.18A19.18,19.18,0,0,0,341.35,293.11Z"/><path class="cls-2" d="M290.45,360.26c-.84-4.23-5.44-16-5.82-17.1s-1-3.66-1.88-6.67-2.53-11-3.66-13.71-6.21-16.78-6.39-19.34a51.6,51.6,0,0,1,0-7.51c.18-1.42-.18-2.21,1.15-1.15a25.42,25.42,0,0,1,4.06,4.51c.44.79,4.24,7.77,4.69,9.1s2.29,4.24,2.38,5.65.09,9.81,1.41,10.43,1.92,1.11,2.52-1.56,2.87-17.56,2.74-19.83-.54-5.4-.6-6.67-.47-5.87.06-7.08.67-2.53,2.14-2.53,1.94.3,2.07,1.28,0,8.93,0,10.87-.5,17.75-.52,20.36-.32,12.12-.36,13-.1,8-.2,8.78a63.82,63.82,0,0,0-.14,6.84,10.55,10.55,0,0,1,.55,1.72,4.82,4.82,0,0,1-.52,2.13c-.51,1.24-2.33,6.57-2.57,7.26s-.66,1.93-.76,2.05S290.45,360.26,290.45,360.26Z"/><path class="cls-2" d="M295.39,347.12c-.67.35,3.42-26.49,3.85-29.52.4-2.77.88-6.83.55-9.18s-.66-15.9-.66-18S298,280,298.37,274.72s.32-21.39.76-22.4S301,235.53,301,233.85s.22-2.92,0-8.07-1.31-21.94-1.53-24.18-1.7-15.36-1.65-17.46-.24-6.95.1-7.63a13.84,13.84,0,0,0,.81-2c0-.29,1-.34,2.06,3s5.17,12.14,5.6,13.76,1.2,1.81,1.48,6.41,1.49,21.43,1.63,23.39,1.34,20.06,1.2,21.39-.27,12.08,0,13.31,1,6.26,1.34,7.68,1.56,6,2.32,6.91,1.89-.55,2.21-1.36,2.34-11.22,2.66-12.84,2.69-12,3.36-13.77,4.26-12,5.05-13.45,3.28-7.39,4-8.44,1.58-2.22,2-2.71.67-1.17,1.14-1.05,1.47.69,1.27,3.4-3.4,13.45-3.79,14.66-4.43,12.15-4.82,13.25-4.51,10.66-5.18,12.23-2.84,7.4-3.08,8.4-.47,2.29-.15,2.53a1.18,1.18,0,0,0,1.55.16c.92-.44,5.34-6.44,6.93-9.63s6.3-12.95,7-13.89,5.41-8.15,6.44-9.07,2.35-3.12,3.13-3.88,2.45-2.44,3.41-2.31,1.21,1.23.81,2.53-.25,2.48-1.06,3.68-4.19,6.35-5,7.17-4.13,5.27-4.94,6.38-4.16,4.76-4.63,5.55a12.83,12.83,0,0,0-1,3.49,12.62,12.62,0,0,0,0,2.86c.13.22.22.25,1.12-.58s14.22-17.82,15.76-19.65,11-15.24,12.47-16.54,3.56-4.57,4.07-5,1.12-.59,1.25,1.08a9.76,9.76,0,0,1-1.22,5.58c-1.15,2.18-6,10.73-6.6,11.35s-3.16,4-3.86,5.06-13.16,18.89-13.88,20-7.8,10.83-9.22,12.21a34.83,34.83,0,0,0-2.8,3.33c-.66.74-1.52,2.28-2.61,2.95s-2,2.73-2.29,2.09a25.63,25.63,0,0,1-.6-5.13c0-1,.52-3.22-.4-3a6.87,6.87,0,0,0-2.68,2.5c-.72,1.14-6.72,13.81-8.5,17.41S305.88,314,305.26,316s-7,20.08-7.35,21.24-2,8.19-2.15,8.65-.17,1.66-.45,2S295.39,347.12,295.39,347.12Z"/><path class="cls-3" d="M307.59,287.64c-.52-3.48-2.19-24.61-1.68-27.69s.65-6.23,1.68-6.1.57,2.45,1,4.44,2.38,14.68,2.7,15.19.41,1.31.95,1.71.62.23.28,1.23-.11,1.36-.51,1.9-.66.19-.93,1.42-.63,4.86-1.16,6.05-.3,1.8-.86,2.29-.33.6-.69.49S307.59,287.64,307.59,287.64Z"/><path class="cls-2" d="M315.09,267.05c-1.69-5.74-2.28-6.84-1.45-9.28s3.81-11.75,4.13-12.54,2.67-7.74,3-8.84a23.67,23.67,0,0,1,1.84-4.36c.4-.4.72-1.6,1.37-1.43s.62.74.66,1.25a1.82,1.82,0,0,1-.28,1.25c-.31.69-2.26,5.77-2.57,6.57s-2.17,7.29-2.32,8.19-.89,5.39-1.25,5.81-2.32,10.13-2.38,10.69-.26,1.95-.34,2.27,0,.79-.14.95S315.09,267.05,315.09,267.05Z"/><path class="cls-2" d="M312.53,256.69c-.12-6.23.39-12.38,0-14.74s-.68-3.3.59-7.68,5.41-21.62,5.67-25.2,2.37-17.38,3.44-22.29,2.29-9.74,2.31-13.34,1.68-4.81,2-5,1.49.82,1.83,1.84.21,3.39,1.09,3.6,1.63.73,2.38-.42a12,12,0,0,0,1.42-5c.14-1.81,2.31-13.62,3.13-15.46s1.83-7.4,2.85-9.64,2.4-4.55,2.81-4.63.52,1.46.52,2.61a35.88,35.88,0,0,1,0,7.61c-.52,3.1-1.53,10.3-1.72,12s-1.3,10.52-1.26,11.64-.15,3.32.22,3.81.63.93,1.19.37,1.68-3.4,2.24-4.63,4.18-10.48,4.63-11.83a62.59,62.59,0,0,0,1.94-6.3,37,37,0,0,0,.52-6.46,46.18,46.18,0,0,0-.93-6.49c-.26-.86-.86-4.25-1.16-6.12s-1.08-10.85-1.38-12.42-1-7.31-1.27-9.4-1.56-18.14-1.6-20.37.3-8.32.67-9.37.49-2.13,1.53-2.09,1.83.78,2.65,2.28.52,2.68.6,3.88,1.34,15.44,1.45,16.68,1.19,11,1.19,11.93.38,5.64.42,7.21.07,8.35.41,8.8.52,1,1.15.75a2.41,2.41,0,0,0,1.79-1.91c.41-1.45,1.72-8.06,2.24-9.77s2.17-9.55,2.61-11.12,2.28-10.37,2.69-11.53.88-5,1.49-5.77,2-3.21,2.35-3.54.63-1.06.8-.71a4.43,4.43,0,0,1,.23,2.28c0,1.62-.12,10.82-.12,11.38a36.12,36.12,0,0,1-.07,5.1c-.23.54-1.15,4-1.5,4.88s-2.28,7.39-2.58,8.19-1.67,5.73-2,6.53-5.17,16.87-5.58,19-.6,3.15-.95,4.46-1.58,5.19-2,6.45-3.32,10.52-3.77,11.65-6.24,18.55-7,19.75-6.65,15.6-7.22,16.69a36.16,36.16,0,0,0-1.35,8.67c.17.9.62.87.1,1.43s-4.26,4.43-5.29,6.84-2.21,5.7-2.78,6.73-.43,2.71-.94,1.93-1.11-1.32-1.89-.82-4.18,5.45-5.54,10.82-2.87,8.94-3,9.79-.72,2.88-1,3.72-.38,1.45-.59,2-.71,3.06-.79,2.36A5.08,5.08,0,0,1,312.53,256.69Z"/><path class="cls-2" d="M310.67,218.5c-.18-3.71-.78-20.05-1.23-22.67s-.69-4.68-1.39-6.08-4.73-11.11-5-11.77-1.24-.86-.31-3.07,1.25-3,1-4.27-1.32-11.19-1.67-13.33-1.44-6.72-1.94-8.27a25.57,25.57,0,0,1-1.13-5.13c0-.93-.15-1.59.24-1.94s.66.23,1.28.43,1.09.11,1.71.81a56.72,56.72,0,0,1,3.69,6.53,5.69,5.69,0,0,1,.54,2.1c.16,1.43,1,17.75,1.13,19.19s.15,3.84.77,4.31,1.07,1,1.76.43a6.26,6.26,0,0,0,1.42-2.92c.07-.65,1-7.24,1.06-8.48s1.24-11.26,1.24-12.15,0-8.25.15-9.31.73-7.6.73-8.38a33.86,33.86,0,0,1,1.52-6.76,39.92,39.92,0,0,1,3.07-5.93c.5-.45.91-.93,1.06-.58s.84.71.89,1.87.09,13,0,13.91.15,3,.05,4.08-1.44,11-1.55,12.09-2.08,15.18-2.19,15.94-.45,3.74-.2,4.29.2.45.64.63.66,0,.94-.48.59-3.61.79-4.26,1.62-7.19,1.82-7.93,1.18-4.8,1.32-5.6,1.1-4.72,1.3-5.63,1.53-5.29,1.9-6.26a46,46,0,0,1,2.09-4.5,25.74,25.74,0,0,1,1.53-2.25c.26-.24.27.1.31.73s-.29,2.93-.29,3.6a39.9,39.9,0,0,1-.43,4.66c-.22,1.06-1.39,8-1.61,8.7s-1.37,6.17-1.51,6.8-1.56,6.38-1.65,6.9a4.71,4.71,0,0,1-.47,1.22,18.91,18.91,0,0,0-1.72,4.35,44.22,44.22,0,0,1-.78,5.17c-.24.63-1.64,9.36-1.85,10.44s-.25,2.56-.33,2.81a1.74,1.74,0,0,1-.58.84,5.61,5.61,0,0,0-1.36,1.66c-.26.61-1.86,4.9-2.2,5.71a24,24,0,0,0-1,3.48c-.21,1-1,5.76-1.28,6.44s-1,4.75-1.13,5.29-.59,2.4-.69,2.78-.28,2.37-.42,1.91A10.18,10.18,0,0,1,310.67,218.5Z"/><path class="cls-2" d="M255.27,451.35c-1.61-1.53-15.19-13.5-17.73-15.87s-14.6-11.46-15.79-12.82-3.06-2.29-3.39-4.58-.09-4.16-2.64-6.87S202,393.38,200.19,391s-6.79-8.14-8.57-11.58S187,370,185.43,368.35s-6-5-7.3-8.07-2-5-2.13-5.34,2.55,1.69,5,3.82,10.43,7.63,11.92,8.65,8.62,4.67,10.06,6.37,3.82,3.73,4.67,4.92,2.46,1.7,2.72,2.21,2.71,5.77,4.24,8.14,12.48,15.71,13.16,17.15,14.76,24.7,15.7,26.22S255,448,255.27,448.58s1.47,1.56,1.43,2.09-.09,1.12-.41,1.21S255.27,451.35,255.27,451.35Z"/><path class="cls-2" d="M226,376.56c-2.64-6.06-5.67-8.73-5.41-13.92a93.86,93.86,0,0,0,0-12.17c-.25-3.55,2.78-22.71,3.31-26.5s1.18-23.43,2.11-27,4.93-33,5.16-37,2.74-14.47,3.53-16.71,2-7.25,3.29-7.64,1.45-2.12,2.77.91,1.85,4.62,1.71,9.23-.79,24.57-1.05,27.44.79,8.13.53,11-3.17,28.72-3,30.56.79,2.37.13,5.93-3.56,23.19-4,26.22-1.64,11.36-2.18,13-.74,3.66-1.39,5.42-3.83,8.33-4,9.14a31.9,31.9,0,0,1-.79,3.11C226.62,377.87,226,376.56,226,376.56Z"/><path class="cls-2" d="M217.69,352.19c-1.66-7.86-3.59-14.9-3.87-19s-1.65-17.24-1.79-19.45-1.24-17.94-1.1-20.14.11-12.79,0-15.23-.54-9.33,1.11-11.54,1.72-3.45,3.27-4.55,2.84-.56,3.16,2.2,2.32,10.81,2.08,13.89-1.2,25.17-.92,27.85.66,15.05.94,15.84-.64,4.55-.9,6.59-1.08,15.87-1.2,17.32a20.36,20.36,0,0,0,0,3.8,23.41,23.41,0,0,1,.23,3.3c0,.82-.16,4.12-.23,4.61s-.76-5.16-.76-5.16Z"/><path class="cls-2" d="M198.9,271.28c5.43-10.49,11.15-27.33,12.92-29.33s6.4-12.28,10-16.17,16.77-19.46,19.26-21.22,5.07-3.37,6.36-4.33,2.81-1.29.8,1.84-11.9,15.53-13.35,18.26-10.21,15.36-12.14,17.85-11,17.78-12.31,19.22a57.32,57.32,0,0,0-4.82,6.84c-1.29,2.17-2.69,6.17-3.91,7s-1.71,2.26-2.54,2.37-.86-.66-1.14-1.25S198.9,271.28,198.9,271.28Z"/><path class="cls-2" d="M193.51,325c-1.63-1.75-3.55-1.89-4.73-5.74s-4-10.48-5.17-11.37-5.65-5.91-6.22-7.24-6.34-16.69-7.22-19.06-2.22-6.94-3.7-9.45S155.24,251,154.65,249.66a22.2,22.2,0,0,1-2.06-7.71c-.45-4.26-1.33-7,0-7.2s3.39-.16,4.72,2.94,9.68,23.82,10.53,24.83a79.3,79.3,0,0,1,5.69,9.27c.7,1.72,3.27,5.54,3.86,7.41S183,293.14,184.2,295s4.05,6.7,4.36,8.72,3.9,13.64,4.37,15.74,1.32,4.76,1.55,5.5S193.51,325,193.51,325Z"/><path class="cls-2" d="M187.38,294.54s-7.61-16.68-8.81-22.72-4-11-4.41-16.61-2.31-23.69-3.34-28.44-4.23-17.33-3.21-22.72,2.7-14.88,2.44-17.58.77-17.58,2.31-20.67a55.27,55.27,0,0,0,3.34-7.7c.64-2,.64,1.8.64,4v2.18c.9,21.32,2.58,35.82,2.58,37.57s.68,16.32,1,18.34,2.29,14.1,2.29,15.31,1.24,5.61,1.07,6.05a13.64,13.64,0,0,0-1.5,5.56c-.07,2.93.27,12.92.47,13.67s.65,6.07.75,7,1.16,7,1.33,8,2,11.09,2.19,12,1.09,5.35,1.14,5.88.29,1.63.31,2.14S187.38,294.54,187.38,294.54Z"/><path class="cls-2" d="M194.51,254c-1.6-5.8-3.24-5.8-4-7.94a15.17,15.17,0,0,0-3.28-5.42c-1.26-1.27-2.27,2.39-3.53-10.85s-1.77-24.72-2.27-28.88-1.14-18.79-1.52-23.71-.63-23.71-.75-26.11-.25-2.89-.5-5.19.81-10.86,1.05-12.91a52.55,52.55,0,0,1,1.31-5.65c.31-1.36.62-3.35,1.12-1.15s2.23,8,2.23,11,1.77,25.09,1.77,26.62.44,17.14.42,20.35.55,16,.67,18.25.44,8,.68,10.64,1.07,7.95,2,8.3,2,.91,2.44-.46.69-10.82,1.26-13.22.68-12.36.68-15.05.86-16.82.86-18.76,1.83-16.19,2-18,1-10.47,1.77-11.61,2.06-5.21,2.75-5.49,1.77.46,1.43,3.89,0,4.8-.29,7.38-.57,14.42-1.2,16.48-.8,9-.92,10.47-.82,5.77.39,7c.82.85,1.24,1.76,2.68.26,1.22-1.27,1.12-1.54,1.18-3a40.9,40.9,0,0,1,.33-8.33c.69-3.54,3-15.62,3.38-17.39s3.14-11.56,3.49-13.1,1.6-6.24,2.23-6.87.91-1.43,1.54-1,1,2.35.29,5.73-2.46,10.35-3,12.75-2.34,13.22-2.91,15.68-1.43,8.3-1.78,11.27-.86,11.5-.86,13.67.18,3.49,1.09,3.58,2.23-2.09,3.61-4.38,1.77-6.8,5.95-11.5a163.75,163.75,0,0,0,10.35-12.75c.8-1.38,6.64-9.5,8.13-11.16s6.46-8.41,7.78-9.33,2.46-2.06,3.2-2.46,1.09-.28.8,1.09-5.49,12.07-6.92,14.07-5.15,9.9-6.29,11.5-4.64,6.58-6.36,9-7,10.12-8.69,12.58-5.59,7.84-6.75,10-8.81,17.62-10.21,21.44-1.44,5.18-2.52,7.08-2.48,9-3.16,11.3-1.12,5-1.57,6.62-.22,2.72-.5,3.64a27.69,27.69,0,0,0-.34,2.85C195.05,257.62,194.51,254,194.51,254Z"/><path class="cls-2" d="M173.2,298.91c-2-2.29-6.21-7.24-7.93-9.44s-7.15-9.86-8.6-12.41-8.15-12.66-10.36-16.82-9.86-16.65-12.58-20.9-23.28-44-24.86-47-4.89-7.08-3.17-6.95,5.15,1.85,7.53,4.5,7.4,7.49,8.85,9.63,7.14,12.17,8.86,14.42,12.29,20.48,13.48,23.39,16,31.32,16.91,33.17,3.78,6.7,4.61,8.83,7.46,17.17,7.73,18,1.6,2.58,1.62,3C175.31,301,173.2,298.91,173.2,298.91Z"/><path class="cls-2" d="M161.37,289.55s-8.3-9.77-9.49-11.22-7.48-9.81-8.75-11.48-6.22-7-6.85-8.21-2.08-3.9-3.19-4.86-8.84-7.57-9.8-8.2a15.18,15.18,0,0,1-3.9-3.63c-2.76-3.95-5.7-8-6.24-8.95a19.15,19.15,0,0,0-2.88-3.32c-.71-.6-8.66-8-10-9s-8.49-6.53-10.89-8-14.86-8.76-16.33-10.23S70.48,198.87,68,196s-19.6-19.67-23-23-11.3-9.19-12.49-10.56-3.5-3.7-4.31-3.88-2.69-1.51-3.38-1.57-2.13-.69-1.13-.94a10.44,10.44,0,0,1,7,.41C33.8,157.9,48.31,169,49.19,169.91s8.26,7.88,9.2,9.07,8.82,9.32,10,10.64,6.31,7.07,7,7.75,5.51,6.82,6.7,7.32,3.06,1.69,3.44.94a2.4,2.4,0,0,0-.25-2.88c-.94-1.37-12.08-17.83-13-19.51s-6-10.64-7.26-12.45-7.13-11.33-8.2-12.58-8.94-12-9.88-13.64-7.13-13.2-8-14.64a27.15,27.15,0,0,1-2.5-6.38c-.31-1.75-.19-2.31-.44-3.19s.5-1.06,1.88,0,6.76,4.69,8.76,7.32,11.32,16.08,12.76,17.89,6.82,12.64,7.76,14S77.34,176,78.59,177.92s11,16.33,12.2,18.08,13.08,20.71,13.83,22,7.63,11.9,8,12.55,1.93,2.75,2.34,3.28,4.23,6,4.68,6.42,7.1,6.87,7.59,7.33,3.78,3,4.19,3.24,1.18.38,1.36,0a2.68,2.68,0,0,0-.18-1.74A46.46,46.46,0,0,0,128,242.9c-1.06-.93-3-3.27-3.82-3.84a9.5,9.5,0,0,1-2.71-2.72c-.87-1.36-4.84-8.3-5.82-10s-13.85-24.43-14.87-26.14S86.09,171.7,85.18,169.65s-7.88-16-9.13-19.06a86.2,86.2,0,0,1-3.33-9.77c-.29-1.5-.58-3.11.17-2.42a20.84,20.84,0,0,1,5.36,7.2c2.07,4.44,8.07,15.38,8.81,16.88S97,182,97.49,183.16s1.5,3.92,2.77,4.15,1.75-.46,2.52.58,9.86,19.64,10.61,21.2,12.85,24.08,13.66,25.69,9.44,15.32,10.31,16.59,9.33,15.56,9.79,16.65,11.75,17.51,12.16,18.21S161.37,289.55,161.37,289.55Z"/><path class="cls-2" d="M172.92,265.64s-3.71-7.88-4.87-11.63-6.68-16.73-8.45-19.31-2.63-3.83-4.65-4-4-.81-5.06.64-1,4.65-.7,5.89-1.32-1.55-2.65-4.28-7.94-14-9.49-16.57a67.89,67.89,0,0,0-4.6-7.09,120.89,120.89,0,0,1-7.78-11.83c-1.32-2.56-6-12.29-7.47-14.32s-9.88-16.65-10.58-18-7.71-18.91-8.25-21.25-1.71-5.68-1.32-6.93.85-1.24,1.79-.85,1.4.08,2.41,1.48,5.06,9,6.54,11.05,6.14,7.47,7.39,9.73,7.31,13.07,8.72,15.48,10.39,18.6,11.18,19.85,4.93,7.08,7.1,11.91,8.43,15.33,9.7,16.11,1.74,1.55,2.45.54,1.08-.47.07-3.19-8.48-21-10.43-24.67-9.33-20.62-10.35-23.5-3.05-6.21-3.31-8.53-.43-6.34.26-6.55.9-.14,2.44.62,4.33,4.69,5.23,6.36,5.74,11.87,6.12,13.2,5.4,17,5.83,17.95,2.17,5.05,2.59,5.08.89.16.83-1.08-1-14.8-2-19.45-3.75-21.08-4.5-23-1.8-5.7-3.6-8.1-6.9-11.48-7.28-14.1a25.3,25.3,0,0,1-.45-5.29c.12-.87.37-1.15,1.47-.45s6.2,4.15,8.65,8.45a171.46,171.46,0,0,1,7.75,17.29c.79,2.32,2.73,4.88,3.21,7.62s2.4,18.72,2.56,20,1.36,11.37,2,12.8,2.75,7.47,3,8,.15,1.16.08,2.47.75,15.61,1.54,18.27,3.38,13.81,3.66,17.33,1.76,15.56,2,16.78,1.44,7.59,1.76,8.41a37,37,0,0,1,1.27,4.29A38,38,0,0,1,172.92,265.64Z"/><path class="cls-2" d="M120.21,141.3c-1.54-.56-3.28-.56-5.24-3.63a37.9,37.9,0,0,0-6.84-8.1c-1.89-1.47-7.76-5.73-10.34-8s-10.55-10.4-12.3-12.15S75.15,99.11,73.13,97.37s-9.08-8-10.2-9.44-8.52-10.61-10.55-13S41.49,61.25,40.3,59.78s-4.22-4.06-4.22-5.69.32-1.69,1.55-1.26,4.84,3.07,5.56,3.47a35.48,35.48,0,0,1,5.74,4.25c1.19,1.34,28.92,31.32,30.49,33.09s20.69,22.47,22.6,24,6.6,5.57,7.37,5.69,1.86.65,2.67.38,1.24.74,1.82,1.86,5.76,13.65,5.87,14.23a5.55,5.55,0,0,0,.63,1.38C120.45,141.37,120.21,141.3,120.21,141.3Z"/><path class="cls-2" d="M149.61,185.87s-4.43-14.37-6-18.36a63.8,63.8,0,0,0-6-11c-1-1.3-2.92-1.83-3.94-2.45s-2.25-1.46-3-1-1,1.3-1.81,1.47-3.89-6.94-5.24-10.32-6.86-18.29-7.68-19.49S101.34,97.06,99.77,94,93.6,83,92.75,80.91s-4.22-11.32-5.07-15A105.9,105.9,0,0,1,86,55.29c-.12-1.35.73-1.8,1.4.34s2.31,6.81,3.21,8.1,6.59,10.25,7,11,6.53,11.6,7.2,12.61,7.44,12.22,7.66,13,1.41,2.42,2.14,4.45,6.22,13.17,6.69,14.3,5.59,13.73,6.27,15.2,5.8,13.24,6.47,14.42,3.33,6.19,3.67,6.55.69.69.94.31a3.37,3.37,0,0,0,.13-2c-.11-.88-.8-2.85-.8-3.32a55.14,55.14,0,0,0-1.52-6.25c-.39-1-6.74-22.2-7.63-23.74s-5.09-15.41-7-18.33-8.52-13.74-11.71-18.07-9.66-15.52-11.06-18.06-6.87-11.45-9.29-15.14a127.71,127.71,0,0,1-7.12-13.31c-.34-1-.88-2.89,0-3.83s1.27-1.14,3,.4S94,45.32,95.14,47.13,110.34,69,111.42,71s8,11.84,9.87,16.35,9,17.14,9.83,19.23,8.27,16.47,9,17.48,2.27,4,2.87,4.11,1.22.28,1.29-.52a29.32,29.32,0,0,0-.49-3.94c-.18-1.29-.63-4.39-.84-8.75s-.32-19.06,0-21.23.47-12.62-.23-15.25-2.4-20.75-3.1-23.77S137.38,31.32,137,28.85s-1.39-14.33-.85-15.1,1.32-1.71,2.32-.85.78.38,1.86,3.71,6,22.84,6,24.08.62,1.16.78,5,2.32,25.16,2.4,26.63,1.54,14.71,1.54,17.42,1.63,20.83,2.25,22.15.93,2.48,1.94,2.32,1.93-.15,2.24-.85a29.36,29.36,0,0,0,1.24-7.82c.23-4.26.39-14.94.93-16.8A67.6,67.6,0,0,0,161.15,78c.08-2.78,2.25-18,2.25-20.67s1.54-20.29,1.23-22.38,3.57-25.32,3.72-25.78.62-1.63,1.47,0a24.36,24.36,0,0,1,4,10.61c1.16,7,2.56,8.36,2.32,12.62S174.24,65,174.24,68.1s-.55,6-.39,8.21-.39,5.42,1.32,5.58,2.4-.47,3.17-2.4,3.48-18.36,3.64-20.76,1.08-10.29,2.32-11.92,7.2-11.46,8.6-12.54,2.24-1.78,1.85-.55-2.94,9.06-4.64,13a50.86,50.86,0,0,0-3.1,9.53c-.54,2.47-4.49,19.2-5,20.83s-3.8,18.06-4.57,20.3S175,108,174.6,110.31s-3.28,25.13-2.68,26.14,1.35,1.27,2,0,5.91-15.87,6.59-17.89,9.62-27,11.39-31.91,5.74-16.21,6.33-17.82a93.1,93.1,0,0,0,2.45-16.46c.09-4.72.09-6.75.93-7.09s1.35-1.1,2.45.59,4.14,6.42,4.14,7.94a142.71,142.71,0,0,1-1.52,15.45c-.76,3.54-4.39,14.69-5.83,17.56s-9.79,23.72-10.72,26.25-4.75,12.66-4.86,13.44a22.18,22.18,0,0,1-.72,2.63s-.36.68-.48-.21-.75-4.46-1-5.33-.66-1.39-1.18-1-1-.18-2,2.15S176,143,176.18,144.36s.82,2.69.48,4.14a67.26,67.26,0,0,1-3.73,9.39,23.55,23.55,0,0,0-3.24,7.1c-.48,2.56-3,15.39-2.83,17.19s0,8.53-.48,10.2-1.28,5.48-1.34,6,0,1.81-.85-1.1a123.51,123.51,0,0,1-2.36-12.16c-.14-1.31-1.9-15-2.23-18s-.27-4.85-1.12-7.48-9.31-22-10.81-24.32a42.47,42.47,0,0,0-5.31-6.29,20.93,20.93,0,0,0-3.87-2.85c-.79-.23-1.77-1.08-2.63-.75s-1.63.56-1.79,1.8a39.65,39.65,0,0,0,.63,7.67,72.83,72.83,0,0,0,3,6.82c.45.71,4,7.17,4.35,7.94a17.28,17.28,0,0,1,1.81,3.28c.42,1.46,2.83,9.64,3,10.48s2.53,14,2.69,14.63,1.33,7.85,1.33,8.31.68,4.7.72,5.22.26,1.56.26,1.82-1-3.15-1.27-4S149.61,185.87,149.61,185.87Z"/><path class="cls-2" d="M311.47,231.44c-.16-4.42-.84-5.14.22-9.05s2.92-13.82,3.42-15.22,1.87-7.77,2.21-8.57a13.26,13.26,0,0,0,1-2.08,49,49,0,0,0-.92,5.09c0,.92-1,6.75-1.29,8.32s-1.53,7.82-1.91,9.87-1.56,6.3-1.75,8.24-.58,4.5-.66,4.84S311.47,231.44,311.47,231.44Z"/></svg>