<svg id="Layer_1" data-name="Layer 1" xmlns="http://www.w3.org/2000/svg" viewBox="0 0 1610.76 797"><defs><style>.cls-1{fill:#f2915d;}.cls-2{fill:#ea5713;}.cls-3,.cls-4{isolation:isolate;}.cls-4{font-size:120px;font-family:HoeflerText-Regular, Hoefler Text;}.cls-4,.cls-5{fill:#fff;}</style></defs><rect id="Rectangle_4" data-name="Rectangle 4" class="cls-1" x="798.76" width="812" height="797"/><rect id="Rectangle_3" data-name="Rectangle 3" class="cls-2" width="810.57" height="797"/><g id="SIMPLEOIL" class="cls-3"><text class="cls-4" transform="translate(358.69 435.49)">SIMPLEOIL</text></g><path class="cls-5" d="M1033.41,465.1c-11.05,10.56-19.7,14.6-21.27,23.06s8.43,6.42,14.85-8.32Z"/><path class="cls-5" d="M1068.46,455.23c-20.31,13.57-28.36,28.06-30.87,32.72s1.13,7.71,12.32-2.49S1068.46,455.23,1068.46,455.23Z"/><path class="cls-5" d="M1017.76,502.23c-11.55,16.06-25.53,18.73-30,19.5s-8.1-4.34,1.09-12.08S1017.76,502.23,1017.76,502.23Z"/><path class="cls-5" d="M1004.9,489.27c-11.74-6.35-22.1-7.36-21.82-14.78s13-8.7,17.4,3Z"/><path class="cls-5" d="M983.58,487.58a60.93,60.93,0,0,0-21.31,27.24c-1.76,4.28.7,8.17,8.41,0S983.58,487.58,983.58,487.58Z"/><path class="cls-5" d="M965.74,492.75c-11.25-7.81-17.15-16.37-23.51-13.44s-1.33,14.32,11.09,13.88Z"/><path class="cls-5" d="M947.6,503.59c-12.57,8.5-22.55,10.34-24.09,19.47s10.07,10,17.08-4.76Z"/><path class="cls-5" d="M929.34,506.28c-8.89-2.94-15-2-17.67-7.75s3.78-8.86,10.72-.55Z"/><path class="cls-5" d="M904.84,501.63c-14.24-15.39-22.25-30.95-29.41-27.34s.14,23.71,14.78,25.53Z"/><path class="cls-5" d="M891.33,508.29c-14.22,12.39-26.81,17.6-26.4,26.73s15.84,5.86,21.12-10.43Z"/><path class="cls-5" d="M861.63,502.23c-16.17-5.44-23.51-15.63-25.81-18.93s0-7.16,9.23-1.76S861.63,502.23,861.63,502.23Z"/><path class="cls-5" d="M850.62,509.82c-15,3.77-26.57,2.12-28.84,10.25s11.06,12.88,20,1.32Z"/><path class="cls-5" d="M826.08,499.52c-22.19-5.59-34.61-17.61-38.54-21.52s-2.13-8.8,11.18-2.78S826.08,499.52,826.08,499.52Z"/><path class="cls-5" d="M803.21,502.46a40.56,40.56,0,0,0-29.63,8.28c-3.22,2.45-2.48,7.61,7.6,6.08S803.21,502.46,803.21,502.46Z"/><path class="cls-5" d="M915.61,511.79c-8.48,2.21-15.05,1.29-16.36,5.95s6.22,7.32,11.29.69Z"/><path class="cls-5" d="M1039.21,503c-8.48,2.21-15,1.3-16.36,5.95s6.22,7.33,11.29.69Z"/><path class="cls-5" d="M785.7,495.34c-17.48-7.07-27.83-15.93-35.78-11.43s1.94,16.78,18.86,14.1Z"/></svg>